G04 EAGLE Gerber RS-274X export*
G75*
%MOMM*%
%FSLAX34Y34*%
%LPD*%
%INTop Copper*%
%IPPOS*%
%AMOC8*
5,1,8,0,0,1.08239X$1,22.5*%
G01*
%ADD10R,0.800000X0.800000*%
%ADD11C,1.016000*%
%ADD12C,4.445000*%
%ADD13C,1.400000*%
%ADD14R,0.949959X1.031241*%
%ADD15R,1.676400X1.676400*%
%ADD16C,1.676400*%
%ADD17C,4.016000*%
%ADD18C,1.960000*%
%ADD19R,1.524000X1.524000*%
%ADD20P,1.649562X8X292.500000*%
%ADD21R,1.288000X1.288000*%
%ADD22C,1.288000*%
%ADD23C,3.220000*%
%ADD24C,0.254000*%
%ADD25C,0.609600*%


D10*
X932300Y495300D03*
X947300Y495300D03*
X932300Y444500D03*
X947300Y444500D03*
X932300Y546100D03*
X947300Y546100D03*
D11*
X38100Y635000D03*
X38100Y114300D03*
X939800Y114300D03*
D12*
X939800Y711200D03*
X38100Y711200D03*
X38100Y38100D03*
X939800Y38100D03*
D13*
X418700Y25400D03*
X393700Y25400D03*
X368700Y25400D03*
X621900Y25400D03*
X596900Y25400D03*
X571900Y25400D03*
D14*
X766699Y203200D03*
X782701Y203200D03*
X512699Y63500D03*
X528701Y63500D03*
X499999Y139700D03*
X516001Y139700D03*
D15*
X114300Y177800D03*
D16*
X114300Y203200D03*
X114300Y228600D03*
X114300Y254000D03*
X114300Y279400D03*
X114300Y304800D03*
X114300Y330200D03*
X114300Y355600D03*
X114300Y381000D03*
X114300Y406400D03*
X114300Y431800D03*
X114300Y457200D03*
X114300Y482600D03*
X114300Y508000D03*
X114300Y533400D03*
X114300Y558800D03*
X114300Y584200D03*
X114300Y609600D03*
X114300Y635000D03*
X114300Y660400D03*
D17*
X114300Y133350D03*
X114300Y704850D03*
X876300Y133350D03*
X876300Y704850D03*
D18*
X686800Y113900D03*
X686800Y63900D03*
X811800Y63900D03*
X811800Y113900D03*
X178800Y113900D03*
X178800Y63900D03*
X303800Y63900D03*
X303800Y113900D03*
D19*
X352800Y664800D03*
D20*
X378200Y664800D03*
X352800Y639400D03*
X378200Y639400D03*
X352800Y614000D03*
X378200Y614000D03*
X352800Y588600D03*
X378200Y588600D03*
X352800Y563200D03*
X378200Y563200D03*
X352800Y537800D03*
X378200Y537800D03*
X352800Y512400D03*
X378200Y512400D03*
X352800Y487000D03*
X378200Y487000D03*
X352800Y461600D03*
X378200Y461600D03*
X352800Y436200D03*
X378200Y436200D03*
X352800Y410800D03*
X378200Y410800D03*
X352800Y385400D03*
X378200Y385400D03*
X352800Y360000D03*
X378200Y360000D03*
X352800Y334600D03*
X378200Y334600D03*
X352800Y309200D03*
X378200Y309200D03*
X352800Y283800D03*
X378200Y283800D03*
X352800Y258400D03*
X378200Y258400D03*
X352800Y233000D03*
X378200Y233000D03*
D19*
X606800Y664800D03*
D20*
X632200Y664800D03*
X606800Y639400D03*
X632200Y639400D03*
X606800Y614000D03*
X632200Y614000D03*
X606800Y588600D03*
X632200Y588600D03*
X606800Y563200D03*
X632200Y563200D03*
X606800Y537800D03*
X632200Y537800D03*
X606800Y512400D03*
X632200Y512400D03*
X606800Y487000D03*
X632200Y487000D03*
X606800Y461600D03*
X632200Y461600D03*
X606800Y436200D03*
X632200Y436200D03*
X606800Y410800D03*
X632200Y410800D03*
X606800Y385400D03*
X632200Y385400D03*
X606800Y360000D03*
X632200Y360000D03*
X606800Y334600D03*
X632200Y334600D03*
X606800Y309200D03*
X632200Y309200D03*
X606800Y283800D03*
X632200Y283800D03*
X606800Y258400D03*
X632200Y258400D03*
X606800Y233000D03*
X632200Y233000D03*
D21*
X838200Y254000D03*
D22*
X838200Y279000D03*
X838200Y299000D03*
X838200Y324000D03*
D23*
X865300Y223300D03*
X865300Y354700D03*
D24*
X114300Y177800D02*
X114300Y167640D01*
X165100Y116840D01*
X165100Y66040D01*
X167240Y63900D02*
X178800Y63900D01*
X167240Y63900D02*
X165100Y66040D01*
X178800Y63900D02*
X189360Y53340D01*
X293240Y53340D02*
X303800Y63900D01*
X293240Y53340D02*
X189360Y53340D01*
X944880Y441960D02*
X944880Y444500D01*
X944880Y441960D02*
X937260Y434340D01*
X927100Y434340D01*
X922020Y439420D01*
X922020Y441960D02*
X922020Y469900D01*
X922020Y441960D02*
X922020Y439420D01*
X922020Y469900D02*
X947420Y495300D01*
X947300Y444500D02*
X944880Y444500D01*
X947300Y495300D02*
X947420Y495300D01*
X838200Y358140D02*
X838200Y324000D01*
X838200Y358140D02*
X922020Y441960D01*
X378200Y487000D02*
X352800Y487000D01*
X680720Y266700D02*
X680720Y129540D01*
X680720Y266700D02*
X680720Y353060D01*
X680720Y129540D02*
X673100Y121920D01*
X673100Y77600D01*
X686800Y63900D01*
X801240Y53340D02*
X811800Y63900D01*
X697360Y53340D02*
X686800Y63900D01*
X697360Y53340D02*
X801240Y53340D01*
X617220Y408940D02*
X606800Y408940D01*
X619760Y406400D02*
X627380Y398780D01*
X619760Y406400D02*
X617220Y408940D01*
X627380Y398780D02*
X635000Y398780D01*
X680720Y353060D01*
X606800Y408940D02*
X606800Y410800D01*
X392760Y472440D02*
X378200Y487000D01*
X392760Y472440D02*
X426720Y472440D01*
X449580Y449580D01*
X609600Y449580D01*
X619760Y439420D01*
X619760Y406400D01*
X838200Y324000D02*
X838200Y314960D01*
X850900Y302260D01*
X850900Y276860D01*
X840740Y266700D01*
X680720Y266700D01*
X309180Y69280D02*
X303800Y63900D01*
X309180Y69280D02*
X370840Y7620D01*
X642620Y7620D01*
X686800Y51800D02*
X686800Y63900D01*
X686800Y51800D02*
X642620Y7620D01*
D25*
X373628Y422992D03*
D24*
X378200Y418420D01*
X378200Y410800D01*
X782701Y203200D02*
X820801Y241300D01*
X850900Y241300D01*
X860220Y250620D01*
X860220Y317500D01*
X853720Y324000D01*
X838200Y324000D01*
X482600Y294640D02*
X469900Y307340D01*
X482600Y294640D02*
X592240Y294640D01*
X606800Y309200D01*
D25*
X469900Y307340D03*
D24*
X383540Y500380D02*
X226060Y500380D01*
X119380Y393700D01*
X109220Y393700D01*
X101600Y386080D01*
X101600Y292100D01*
X114300Y279400D01*
D25*
X391160Y492760D03*
X495300Y381000D03*
D24*
X469900Y406400D01*
X457200Y406400D01*
D25*
X457200Y406400D03*
X403860Y480060D03*
D24*
X391160Y492760D02*
X383540Y500380D01*
X457200Y345440D02*
X592240Y345440D01*
X457200Y345440D02*
X426720Y314960D01*
X592240Y345440D02*
X606800Y360000D01*
D25*
X426720Y314960D03*
D24*
X454660Y281940D02*
X604940Y281940D01*
X606800Y283800D01*
D25*
X454660Y281940D03*
D24*
X418700Y38100D02*
X418700Y25400D01*
X418700Y38100D02*
X418700Y421100D01*
X378200Y461600D01*
X614680Y25400D02*
X621900Y25400D01*
X614680Y25400D02*
X601980Y38100D01*
X418700Y38100D01*
X373466Y399370D02*
X366770Y406066D01*
X366770Y422230D02*
X352800Y436200D01*
X366770Y422230D02*
X366770Y406066D01*
X393700Y386065D02*
X393700Y25400D01*
X393700Y386065D02*
X380395Y399370D01*
X373466Y399370D01*
X419765Y436200D02*
X606800Y436200D01*
X419765Y436200D02*
X382935Y473030D01*
X206330Y473030D02*
X114300Y381000D01*
X206330Y473030D02*
X382935Y473030D01*
X784860Y299720D02*
X838200Y299720D01*
X784860Y299720D02*
X635000Y449580D01*
X627380Y449580D01*
X619760Y457200D01*
X619760Y464820D01*
X609600Y474980D01*
X431800Y474980D01*
X381000Y525780D01*
X351200Y525780D01*
X351200Y536200D02*
X352800Y537800D01*
X351200Y536200D02*
X351200Y525780D01*
X838200Y299720D02*
X838200Y299000D01*
X932300Y495300D02*
X665900Y495300D01*
X632200Y461600D01*
X955110Y489722D02*
X955110Y500878D01*
X892788Y563200D01*
X632200Y563200D01*
X932300Y466912D02*
X932300Y444500D01*
X932300Y466912D02*
X955110Y489722D01*
X932300Y546100D02*
X927100Y546100D01*
X859200Y614000D02*
X632200Y614000D01*
X859200Y614000D02*
X927100Y546100D01*
X604520Y187960D02*
X665480Y127000D01*
X594360Y406400D02*
X594360Y421640D01*
X594360Y406400D02*
X601980Y398780D01*
X609600Y398780D01*
X619760Y388620D01*
X619760Y381000D01*
X627380Y373380D01*
X635000Y373380D01*
X645160Y363220D01*
X645160Y228600D01*
X604520Y187960D01*
X799500Y101600D02*
X811800Y113900D01*
X699100Y101600D02*
X686800Y113900D01*
X699100Y101600D02*
X799500Y101600D01*
D25*
X665480Y127000D03*
X594360Y421640D03*
X457200Y622300D03*
X457200Y493522D03*
X571500Y266700D03*
D24*
X499999Y195199D01*
X499999Y139700D01*
X457200Y493522D02*
X457200Y622300D01*
X127000Y215900D02*
X114300Y203200D01*
X127000Y215900D02*
X139700Y215900D01*
D25*
X139700Y215900D03*
D24*
X516001Y185801D02*
X516001Y139700D01*
X516001Y185801D02*
X601980Y271780D01*
X609600Y271780D01*
X612140Y269240D01*
X516001Y139700D02*
X528701Y127000D01*
X528701Y63500D01*
X602190Y380790D02*
X606800Y385400D01*
X602190Y380790D02*
X619760Y363220D01*
X619760Y276860D01*
X612140Y269240D01*
X606800Y385400D02*
X516300Y385400D01*
X480060Y421640D02*
X475742Y421640D01*
X480060Y421640D02*
X516300Y385400D01*
D25*
X475742Y421640D03*
D24*
X360680Y210820D02*
X360680Y182880D01*
X303800Y126000D02*
X303800Y113900D01*
X303800Y126000D02*
X360680Y182880D01*
X191100Y101600D02*
X178800Y113900D01*
X291500Y101600D02*
X303800Y113900D01*
X291500Y101600D02*
X191100Y101600D01*
D25*
X360680Y210820D03*
X482600Y88900D03*
D24*
X487299Y88900D01*
X512699Y63500D01*
X469900Y497840D02*
X579120Y497840D01*
X606380Y512820D02*
X606800Y512400D01*
X606380Y512820D02*
X594100Y512820D01*
X579120Y497840D01*
D25*
X469900Y497840D03*
D24*
X368700Y226336D02*
X368700Y25400D01*
X368700Y226336D02*
X366770Y228266D01*
X348066Y399370D02*
X341370Y406066D01*
X354995Y399370D02*
X366770Y387595D01*
X354995Y399370D02*
X348066Y399370D01*
X366770Y387595D02*
X366770Y228266D01*
X341370Y406066D02*
X341370Y440935D01*
X352800Y452365D02*
X352800Y461600D01*
X352800Y452365D02*
X341370Y440935D01*
X434340Y25400D02*
X571900Y25400D01*
X434340Y25400D02*
X421640Y12700D01*
X383540Y12700D01*
X370840Y25400D01*
X368700Y25400D01*
X865300Y223300D02*
X865300Y354700D01*
D25*
X673100Y243840D03*
X766699Y215900D03*
X711200Y215900D03*
D24*
X723900Y203200D01*
X766699Y203200D01*
M02*
