G04 EAGLE Gerber RS-274X export*
G75*
%MOMM*%
%FSLAX34Y34*%
%LPD*%
%IN*%
%IPPOS*%
%AMOC8*
5,1,8,0,0,1.08239X$1,22.5*%
G01*
%ADD10C,0.254000*%


D10*
X0Y0D02*
X977800Y0D01*
X977800Y750800D01*
X0Y750800D01*
X0Y0D01*
X431200Y94909D02*
X431277Y93930D01*
X431431Y92960D01*
X431660Y92004D01*
X431964Y91070D01*
X432339Y90163D01*
X432785Y89288D01*
X433299Y88450D01*
X433876Y87655D01*
X434514Y86908D01*
X435208Y86214D01*
X435955Y85576D01*
X436750Y84999D01*
X437588Y84485D01*
X438463Y84039D01*
X439370Y83664D01*
X440304Y83360D01*
X441260Y83131D01*
X442230Y82977D01*
X443209Y82900D01*
X444191Y82900D01*
X445170Y82977D01*
X446141Y83131D01*
X447096Y83360D01*
X448030Y83664D01*
X448937Y84039D01*
X449812Y84485D01*
X450650Y84999D01*
X451445Y85576D01*
X452192Y86214D01*
X452886Y86908D01*
X453524Y87655D01*
X454101Y88450D01*
X454615Y89288D01*
X455061Y90163D01*
X455436Y91070D01*
X455740Y92004D01*
X455969Y92960D01*
X456123Y93930D01*
X456200Y94909D01*
X456200Y95891D01*
X456123Y96870D01*
X455969Y97841D01*
X455740Y98796D01*
X455436Y99730D01*
X455061Y100637D01*
X454615Y101512D01*
X454101Y102350D01*
X453524Y103145D01*
X452886Y103892D01*
X452192Y104586D01*
X451445Y105224D01*
X450650Y105801D01*
X449812Y106315D01*
X448937Y106761D01*
X448030Y107136D01*
X447096Y107440D01*
X446141Y107669D01*
X445170Y107823D01*
X444191Y107900D01*
X443209Y107900D01*
X442230Y107823D01*
X441260Y107669D01*
X440304Y107440D01*
X439370Y107136D01*
X438463Y106761D01*
X437588Y106315D01*
X436750Y105801D01*
X435955Y105224D01*
X435208Y104586D01*
X434514Y103892D01*
X433876Y103145D01*
X433299Y102350D01*
X432785Y101512D01*
X432339Y100637D01*
X431964Y99730D01*
X431660Y98796D01*
X431431Y97841D01*
X431277Y96870D01*
X431200Y95891D01*
X431200Y94909D01*
X331200Y94909D02*
X331277Y93930D01*
X331431Y92960D01*
X331660Y92004D01*
X331964Y91070D01*
X332339Y90163D01*
X332785Y89288D01*
X333299Y88450D01*
X333876Y87655D01*
X334514Y86908D01*
X335208Y86214D01*
X335955Y85576D01*
X336750Y84999D01*
X337588Y84485D01*
X338463Y84039D01*
X339370Y83664D01*
X340304Y83360D01*
X341260Y83131D01*
X342230Y82977D01*
X343209Y82900D01*
X344191Y82900D01*
X345170Y82977D01*
X346141Y83131D01*
X347096Y83360D01*
X348030Y83664D01*
X348937Y84039D01*
X349812Y84485D01*
X350650Y84999D01*
X351445Y85576D01*
X352192Y86214D01*
X352886Y86908D01*
X353524Y87655D01*
X354101Y88450D01*
X354615Y89288D01*
X355061Y90163D01*
X355436Y91070D01*
X355740Y92004D01*
X355969Y92960D01*
X356123Y93930D01*
X356200Y94909D01*
X356200Y95891D01*
X356123Y96870D01*
X355969Y97841D01*
X355740Y98796D01*
X355436Y99730D01*
X355061Y100637D01*
X354615Y101512D01*
X354101Y102350D01*
X353524Y103145D01*
X352886Y103892D01*
X352192Y104586D01*
X351445Y105224D01*
X350650Y105801D01*
X349812Y106315D01*
X348937Y106761D01*
X348030Y107136D01*
X347096Y107440D01*
X346141Y107669D01*
X345170Y107823D01*
X344191Y107900D01*
X343209Y107900D01*
X342230Y107823D01*
X341260Y107669D01*
X340304Y107440D01*
X339370Y107136D01*
X338463Y106761D01*
X337588Y106315D01*
X336750Y105801D01*
X335955Y105224D01*
X335208Y104586D01*
X334514Y103892D01*
X333876Y103145D01*
X333299Y102350D01*
X332785Y101512D01*
X332339Y100637D01*
X331964Y99730D01*
X331660Y98796D01*
X331431Y97841D01*
X331277Y96870D01*
X331200Y95891D01*
X331200Y94909D01*
X634400Y94909D02*
X634477Y93930D01*
X634631Y92960D01*
X634860Y92004D01*
X635164Y91070D01*
X635539Y90163D01*
X635985Y89288D01*
X636499Y88450D01*
X637076Y87655D01*
X637714Y86908D01*
X638408Y86214D01*
X639155Y85576D01*
X639950Y84999D01*
X640788Y84485D01*
X641663Y84039D01*
X642570Y83664D01*
X643504Y83360D01*
X644460Y83131D01*
X645430Y82977D01*
X646409Y82900D01*
X647391Y82900D01*
X648370Y82977D01*
X649341Y83131D01*
X650296Y83360D01*
X651230Y83664D01*
X652137Y84039D01*
X653012Y84485D01*
X653850Y84999D01*
X654645Y85576D01*
X655392Y86214D01*
X656086Y86908D01*
X656724Y87655D01*
X657301Y88450D01*
X657815Y89288D01*
X658261Y90163D01*
X658636Y91070D01*
X658940Y92004D01*
X659169Y92960D01*
X659323Y93930D01*
X659400Y94909D01*
X659400Y95891D01*
X659323Y96870D01*
X659169Y97841D01*
X658940Y98796D01*
X658636Y99730D01*
X658261Y100637D01*
X657815Y101512D01*
X657301Y102350D01*
X656724Y103145D01*
X656086Y103892D01*
X655392Y104586D01*
X654645Y105224D01*
X653850Y105801D01*
X653012Y106315D01*
X652137Y106761D01*
X651230Y107136D01*
X650296Y107440D01*
X649341Y107669D01*
X648370Y107823D01*
X647391Y107900D01*
X646409Y107900D01*
X645430Y107823D01*
X644460Y107669D01*
X643504Y107440D01*
X642570Y107136D01*
X641663Y106761D01*
X640788Y106315D01*
X639950Y105801D01*
X639155Y105224D01*
X638408Y104586D01*
X637714Y103892D01*
X637076Y103145D01*
X636499Y102350D01*
X635985Y101512D01*
X635539Y100637D01*
X635164Y99730D01*
X634860Y98796D01*
X634631Y97841D01*
X634477Y96870D01*
X634400Y95891D01*
X634400Y94909D01*
X534400Y94909D02*
X534477Y93930D01*
X534631Y92960D01*
X534860Y92004D01*
X535164Y91070D01*
X535539Y90163D01*
X535985Y89288D01*
X536499Y88450D01*
X537076Y87655D01*
X537714Y86908D01*
X538408Y86214D01*
X539155Y85576D01*
X539950Y84999D01*
X540788Y84485D01*
X541663Y84039D01*
X542570Y83664D01*
X543504Y83360D01*
X544460Y83131D01*
X545430Y82977D01*
X546409Y82900D01*
X547391Y82900D01*
X548370Y82977D01*
X549341Y83131D01*
X550296Y83360D01*
X551230Y83664D01*
X552137Y84039D01*
X553012Y84485D01*
X553850Y84999D01*
X554645Y85576D01*
X555392Y86214D01*
X556086Y86908D01*
X556724Y87655D01*
X557301Y88450D01*
X557815Y89288D01*
X558261Y90163D01*
X558636Y91070D01*
X558940Y92004D01*
X559169Y92960D01*
X559323Y93930D01*
X559400Y94909D01*
X559400Y95891D01*
X559323Y96870D01*
X559169Y97841D01*
X558940Y98796D01*
X558636Y99730D01*
X558261Y100637D01*
X557815Y101512D01*
X557301Y102350D01*
X556724Y103145D01*
X556086Y103892D01*
X555392Y104586D01*
X554645Y105224D01*
X553850Y105801D01*
X553012Y106315D01*
X552137Y106761D01*
X551230Y107136D01*
X550296Y107440D01*
X549341Y107669D01*
X548370Y107823D01*
X547391Y107900D01*
X546409Y107900D01*
X545430Y107823D01*
X544460Y107669D01*
X543504Y107440D01*
X542570Y107136D01*
X541663Y106761D01*
X540788Y106315D01*
X539950Y105801D01*
X539155Y105224D01*
X538408Y104586D01*
X537714Y103892D01*
X537076Y103145D01*
X536499Y102350D01*
X535985Y101512D01*
X535539Y100637D01*
X535164Y99730D01*
X534860Y98796D01*
X534631Y97841D01*
X534477Y96870D01*
X534400Y95891D01*
X534400Y94909D01*
M02*
