G04 EAGLE Gerber RS-274X export*
G75*
%MOMM*%
%FSLAX34Y34*%
%LPD*%
%INSilkscreen Bottom*%
%IPPOS*%
%AMOC8*
5,1,8,0,0,1.08239X$1,22.5*%
G01*
%ADD10C,0.127000*%
%ADD11C,0.076200*%
%ADD12C,0.200000*%
%ADD13C,0.254000*%
%ADD14C,0.152400*%
%ADD15C,0.101600*%


D10*
X443700Y25400D02*
X443700Y75400D01*
X443700Y115400D02*
X443700Y150400D01*
X343700Y150400D01*
X343700Y115400D01*
X343700Y75400D02*
X343700Y25400D01*
X353700Y25400D01*
X433700Y25400D02*
X443700Y25400D01*
X363700Y95400D02*
X363709Y96136D01*
X363736Y96872D01*
X363781Y97607D01*
X363844Y98341D01*
X363926Y99072D01*
X364025Y99802D01*
X364142Y100529D01*
X364276Y101253D01*
X364429Y101973D01*
X364599Y102689D01*
X364787Y103401D01*
X364992Y104109D01*
X365214Y104810D01*
X365454Y105507D01*
X365710Y106197D01*
X365984Y106881D01*
X366274Y107557D01*
X366580Y108227D01*
X366903Y108888D01*
X367242Y109542D01*
X367597Y110187D01*
X367968Y110823D01*
X368354Y111450D01*
X368756Y112067D01*
X369172Y112674D01*
X369604Y113271D01*
X370050Y113857D01*
X370510Y114432D01*
X370984Y114995D01*
X371471Y115547D01*
X371973Y116086D01*
X372487Y116613D01*
X373014Y117127D01*
X373553Y117629D01*
X374105Y118116D01*
X374668Y118590D01*
X375243Y119050D01*
X375829Y119496D01*
X376426Y119928D01*
X377033Y120344D01*
X377650Y120746D01*
X378277Y121132D01*
X378913Y121503D01*
X379558Y121858D01*
X380212Y122197D01*
X380873Y122520D01*
X381543Y122826D01*
X382219Y123116D01*
X382903Y123390D01*
X383593Y123646D01*
X384290Y123886D01*
X384991Y124108D01*
X385699Y124313D01*
X386411Y124501D01*
X387127Y124671D01*
X387847Y124824D01*
X388571Y124958D01*
X389298Y125075D01*
X390028Y125174D01*
X390759Y125256D01*
X391493Y125319D01*
X392228Y125364D01*
X392964Y125391D01*
X393700Y125400D01*
X394436Y125391D01*
X395172Y125364D01*
X395907Y125319D01*
X396641Y125256D01*
X397372Y125174D01*
X398102Y125075D01*
X398829Y124958D01*
X399553Y124824D01*
X400273Y124671D01*
X400989Y124501D01*
X401701Y124313D01*
X402409Y124108D01*
X403110Y123886D01*
X403807Y123646D01*
X404497Y123390D01*
X405181Y123116D01*
X405857Y122826D01*
X406527Y122520D01*
X407188Y122197D01*
X407842Y121858D01*
X408487Y121503D01*
X409123Y121132D01*
X409750Y120746D01*
X410367Y120344D01*
X410974Y119928D01*
X411571Y119496D01*
X412157Y119050D01*
X412732Y118590D01*
X413295Y118116D01*
X413847Y117629D01*
X414386Y117127D01*
X414913Y116613D01*
X415427Y116086D01*
X415929Y115547D01*
X416416Y114995D01*
X416890Y114432D01*
X417350Y113857D01*
X417796Y113271D01*
X418228Y112674D01*
X418644Y112067D01*
X419046Y111450D01*
X419432Y110823D01*
X419803Y110187D01*
X420158Y109542D01*
X420497Y108888D01*
X420820Y108227D01*
X421126Y107557D01*
X421416Y106881D01*
X421690Y106197D01*
X421946Y105507D01*
X422186Y104810D01*
X422408Y104109D01*
X422613Y103401D01*
X422801Y102689D01*
X422971Y101973D01*
X423124Y101253D01*
X423258Y100529D01*
X423375Y99802D01*
X423474Y99072D01*
X423556Y98341D01*
X423619Y97607D01*
X423664Y96872D01*
X423691Y96136D01*
X423700Y95400D01*
X423691Y94664D01*
X423664Y93928D01*
X423619Y93193D01*
X423556Y92459D01*
X423474Y91728D01*
X423375Y90998D01*
X423258Y90271D01*
X423124Y89547D01*
X422971Y88827D01*
X422801Y88111D01*
X422613Y87399D01*
X422408Y86691D01*
X422186Y85990D01*
X421946Y85293D01*
X421690Y84603D01*
X421416Y83919D01*
X421126Y83243D01*
X420820Y82573D01*
X420497Y81912D01*
X420158Y81258D01*
X419803Y80613D01*
X419432Y79977D01*
X419046Y79350D01*
X418644Y78733D01*
X418228Y78126D01*
X417796Y77529D01*
X417350Y76943D01*
X416890Y76368D01*
X416416Y75805D01*
X415929Y75253D01*
X415427Y74714D01*
X414913Y74187D01*
X414386Y73673D01*
X413847Y73171D01*
X413295Y72684D01*
X412732Y72210D01*
X412157Y71750D01*
X411571Y71304D01*
X410974Y70872D01*
X410367Y70456D01*
X409750Y70054D01*
X409123Y69668D01*
X408487Y69297D01*
X407842Y68942D01*
X407188Y68603D01*
X406527Y68280D01*
X405857Y67974D01*
X405181Y67684D01*
X404497Y67410D01*
X403807Y67154D01*
X403110Y66914D01*
X402409Y66692D01*
X401701Y66487D01*
X400989Y66299D01*
X400273Y66129D01*
X399553Y65976D01*
X398829Y65842D01*
X398102Y65725D01*
X397372Y65626D01*
X396641Y65544D01*
X395907Y65481D01*
X395172Y65436D01*
X394436Y65409D01*
X393700Y65400D01*
X392964Y65409D01*
X392228Y65436D01*
X391493Y65481D01*
X390759Y65544D01*
X390028Y65626D01*
X389298Y65725D01*
X388571Y65842D01*
X387847Y65976D01*
X387127Y66129D01*
X386411Y66299D01*
X385699Y66487D01*
X384991Y66692D01*
X384290Y66914D01*
X383593Y67154D01*
X382903Y67410D01*
X382219Y67684D01*
X381543Y67974D01*
X380873Y68280D01*
X380212Y68603D01*
X379558Y68942D01*
X378913Y69297D01*
X378277Y69668D01*
X377650Y70054D01*
X377033Y70456D01*
X376426Y70872D01*
X375829Y71304D01*
X375243Y71750D01*
X374668Y72210D01*
X374105Y72684D01*
X373553Y73171D01*
X373014Y73673D01*
X372487Y74187D01*
X371973Y74714D01*
X371471Y75253D01*
X370984Y75805D01*
X370510Y76368D01*
X370050Y76943D01*
X369604Y77529D01*
X369172Y78126D01*
X368756Y78733D01*
X368354Y79350D01*
X367968Y79977D01*
X367597Y80613D01*
X367242Y81258D01*
X366903Y81912D01*
X366580Y82573D01*
X366274Y83243D01*
X365984Y83919D01*
X365710Y84603D01*
X365454Y85293D01*
X365214Y85990D01*
X364992Y86691D01*
X364787Y87399D01*
X364599Y88111D01*
X364429Y88827D01*
X364276Y89547D01*
X364142Y90271D01*
X364025Y90998D01*
X363926Y91728D01*
X363844Y92459D01*
X363781Y93193D01*
X363736Y93928D01*
X363709Y94664D01*
X363700Y95400D01*
D11*
X444119Y152781D02*
X444119Y160147D01*
X442073Y160147D01*
X441984Y160145D01*
X441895Y160139D01*
X441806Y160129D01*
X441718Y160116D01*
X441630Y160099D01*
X441543Y160077D01*
X441458Y160052D01*
X441373Y160024D01*
X441290Y159991D01*
X441208Y159955D01*
X441128Y159916D01*
X441050Y159873D01*
X440974Y159827D01*
X440899Y159777D01*
X440827Y159724D01*
X440758Y159668D01*
X440691Y159609D01*
X440626Y159548D01*
X440565Y159483D01*
X440506Y159416D01*
X440450Y159347D01*
X440397Y159275D01*
X440347Y159200D01*
X440301Y159124D01*
X440258Y159046D01*
X440219Y158966D01*
X440183Y158884D01*
X440150Y158801D01*
X440122Y158716D01*
X440097Y158631D01*
X440075Y158544D01*
X440058Y158456D01*
X440045Y158368D01*
X440035Y158279D01*
X440029Y158190D01*
X440027Y158101D01*
X440029Y158012D01*
X440035Y157923D01*
X440045Y157834D01*
X440058Y157746D01*
X440075Y157658D01*
X440097Y157571D01*
X440122Y157486D01*
X440150Y157401D01*
X440183Y157318D01*
X440219Y157236D01*
X440258Y157156D01*
X440301Y157078D01*
X440347Y157002D01*
X440397Y156927D01*
X440450Y156855D01*
X440506Y156786D01*
X440565Y156719D01*
X440626Y156654D01*
X440691Y156593D01*
X440758Y156534D01*
X440827Y156478D01*
X440899Y156425D01*
X440974Y156375D01*
X441050Y156329D01*
X441128Y156286D01*
X441208Y156247D01*
X441290Y156211D01*
X441373Y156178D01*
X441458Y156150D01*
X441543Y156125D01*
X441630Y156103D01*
X441718Y156086D01*
X441806Y156073D01*
X441895Y156063D01*
X441984Y156057D01*
X442073Y156055D01*
X444119Y156055D01*
X441664Y156055D02*
X440027Y152781D01*
X436855Y158510D02*
X434809Y160147D01*
X434809Y152781D01*
X436855Y152781D02*
X432763Y152781D01*
D10*
X646900Y75400D02*
X646900Y25400D01*
X646900Y115400D02*
X646900Y150400D01*
X546900Y150400D01*
X546900Y115400D01*
X546900Y75400D02*
X546900Y25400D01*
X556900Y25400D01*
X636900Y25400D02*
X646900Y25400D01*
X566900Y95400D02*
X566909Y96136D01*
X566936Y96872D01*
X566981Y97607D01*
X567044Y98341D01*
X567126Y99072D01*
X567225Y99802D01*
X567342Y100529D01*
X567476Y101253D01*
X567629Y101973D01*
X567799Y102689D01*
X567987Y103401D01*
X568192Y104109D01*
X568414Y104810D01*
X568654Y105507D01*
X568910Y106197D01*
X569184Y106881D01*
X569474Y107557D01*
X569780Y108227D01*
X570103Y108888D01*
X570442Y109542D01*
X570797Y110187D01*
X571168Y110823D01*
X571554Y111450D01*
X571956Y112067D01*
X572372Y112674D01*
X572804Y113271D01*
X573250Y113857D01*
X573710Y114432D01*
X574184Y114995D01*
X574671Y115547D01*
X575173Y116086D01*
X575687Y116613D01*
X576214Y117127D01*
X576753Y117629D01*
X577305Y118116D01*
X577868Y118590D01*
X578443Y119050D01*
X579029Y119496D01*
X579626Y119928D01*
X580233Y120344D01*
X580850Y120746D01*
X581477Y121132D01*
X582113Y121503D01*
X582758Y121858D01*
X583412Y122197D01*
X584073Y122520D01*
X584743Y122826D01*
X585419Y123116D01*
X586103Y123390D01*
X586793Y123646D01*
X587490Y123886D01*
X588191Y124108D01*
X588899Y124313D01*
X589611Y124501D01*
X590327Y124671D01*
X591047Y124824D01*
X591771Y124958D01*
X592498Y125075D01*
X593228Y125174D01*
X593959Y125256D01*
X594693Y125319D01*
X595428Y125364D01*
X596164Y125391D01*
X596900Y125400D01*
X597636Y125391D01*
X598372Y125364D01*
X599107Y125319D01*
X599841Y125256D01*
X600572Y125174D01*
X601302Y125075D01*
X602029Y124958D01*
X602753Y124824D01*
X603473Y124671D01*
X604189Y124501D01*
X604901Y124313D01*
X605609Y124108D01*
X606310Y123886D01*
X607007Y123646D01*
X607697Y123390D01*
X608381Y123116D01*
X609057Y122826D01*
X609727Y122520D01*
X610388Y122197D01*
X611042Y121858D01*
X611687Y121503D01*
X612323Y121132D01*
X612950Y120746D01*
X613567Y120344D01*
X614174Y119928D01*
X614771Y119496D01*
X615357Y119050D01*
X615932Y118590D01*
X616495Y118116D01*
X617047Y117629D01*
X617586Y117127D01*
X618113Y116613D01*
X618627Y116086D01*
X619129Y115547D01*
X619616Y114995D01*
X620090Y114432D01*
X620550Y113857D01*
X620996Y113271D01*
X621428Y112674D01*
X621844Y112067D01*
X622246Y111450D01*
X622632Y110823D01*
X623003Y110187D01*
X623358Y109542D01*
X623697Y108888D01*
X624020Y108227D01*
X624326Y107557D01*
X624616Y106881D01*
X624890Y106197D01*
X625146Y105507D01*
X625386Y104810D01*
X625608Y104109D01*
X625813Y103401D01*
X626001Y102689D01*
X626171Y101973D01*
X626324Y101253D01*
X626458Y100529D01*
X626575Y99802D01*
X626674Y99072D01*
X626756Y98341D01*
X626819Y97607D01*
X626864Y96872D01*
X626891Y96136D01*
X626900Y95400D01*
X626891Y94664D01*
X626864Y93928D01*
X626819Y93193D01*
X626756Y92459D01*
X626674Y91728D01*
X626575Y90998D01*
X626458Y90271D01*
X626324Y89547D01*
X626171Y88827D01*
X626001Y88111D01*
X625813Y87399D01*
X625608Y86691D01*
X625386Y85990D01*
X625146Y85293D01*
X624890Y84603D01*
X624616Y83919D01*
X624326Y83243D01*
X624020Y82573D01*
X623697Y81912D01*
X623358Y81258D01*
X623003Y80613D01*
X622632Y79977D01*
X622246Y79350D01*
X621844Y78733D01*
X621428Y78126D01*
X620996Y77529D01*
X620550Y76943D01*
X620090Y76368D01*
X619616Y75805D01*
X619129Y75253D01*
X618627Y74714D01*
X618113Y74187D01*
X617586Y73673D01*
X617047Y73171D01*
X616495Y72684D01*
X615932Y72210D01*
X615357Y71750D01*
X614771Y71304D01*
X614174Y70872D01*
X613567Y70456D01*
X612950Y70054D01*
X612323Y69668D01*
X611687Y69297D01*
X611042Y68942D01*
X610388Y68603D01*
X609727Y68280D01*
X609057Y67974D01*
X608381Y67684D01*
X607697Y67410D01*
X607007Y67154D01*
X606310Y66914D01*
X605609Y66692D01*
X604901Y66487D01*
X604189Y66299D01*
X603473Y66129D01*
X602753Y65976D01*
X602029Y65842D01*
X601302Y65725D01*
X600572Y65626D01*
X599841Y65544D01*
X599107Y65481D01*
X598372Y65436D01*
X597636Y65409D01*
X596900Y65400D01*
X596164Y65409D01*
X595428Y65436D01*
X594693Y65481D01*
X593959Y65544D01*
X593228Y65626D01*
X592498Y65725D01*
X591771Y65842D01*
X591047Y65976D01*
X590327Y66129D01*
X589611Y66299D01*
X588899Y66487D01*
X588191Y66692D01*
X587490Y66914D01*
X586793Y67154D01*
X586103Y67410D01*
X585419Y67684D01*
X584743Y67974D01*
X584073Y68280D01*
X583412Y68603D01*
X582758Y68942D01*
X582113Y69297D01*
X581477Y69668D01*
X580850Y70054D01*
X580233Y70456D01*
X579626Y70872D01*
X579029Y71304D01*
X578443Y71750D01*
X577868Y72210D01*
X577305Y72684D01*
X576753Y73171D01*
X576214Y73673D01*
X575687Y74187D01*
X575173Y74714D01*
X574671Y75253D01*
X574184Y75805D01*
X573710Y76368D01*
X573250Y76943D01*
X572804Y77529D01*
X572372Y78126D01*
X571956Y78733D01*
X571554Y79350D01*
X571168Y79977D01*
X570797Y80613D01*
X570442Y81258D01*
X570103Y81912D01*
X569780Y82573D01*
X569474Y83243D01*
X569184Y83919D01*
X568910Y84603D01*
X568654Y85293D01*
X568414Y85990D01*
X568192Y86691D01*
X567987Y87399D01*
X567799Y88111D01*
X567629Y88827D01*
X567476Y89547D01*
X567342Y90271D01*
X567225Y90998D01*
X567126Y91728D01*
X567044Y92459D01*
X566981Y93193D01*
X566936Y93928D01*
X566909Y94664D01*
X566900Y95400D01*
D11*
X647319Y152781D02*
X647319Y160147D01*
X645273Y160147D01*
X645184Y160145D01*
X645095Y160139D01*
X645006Y160129D01*
X644918Y160116D01*
X644830Y160099D01*
X644743Y160077D01*
X644658Y160052D01*
X644573Y160024D01*
X644490Y159991D01*
X644408Y159955D01*
X644328Y159916D01*
X644250Y159873D01*
X644174Y159827D01*
X644099Y159777D01*
X644027Y159724D01*
X643958Y159668D01*
X643891Y159609D01*
X643826Y159548D01*
X643765Y159483D01*
X643706Y159416D01*
X643650Y159347D01*
X643597Y159275D01*
X643547Y159200D01*
X643501Y159124D01*
X643458Y159046D01*
X643419Y158966D01*
X643383Y158884D01*
X643350Y158801D01*
X643322Y158716D01*
X643297Y158631D01*
X643275Y158544D01*
X643258Y158456D01*
X643245Y158368D01*
X643235Y158279D01*
X643229Y158190D01*
X643227Y158101D01*
X643229Y158012D01*
X643235Y157923D01*
X643245Y157834D01*
X643258Y157746D01*
X643275Y157658D01*
X643297Y157571D01*
X643322Y157486D01*
X643350Y157401D01*
X643383Y157318D01*
X643419Y157236D01*
X643458Y157156D01*
X643501Y157078D01*
X643547Y157002D01*
X643597Y156927D01*
X643650Y156855D01*
X643706Y156786D01*
X643765Y156719D01*
X643826Y156654D01*
X643891Y156593D01*
X643958Y156534D01*
X644027Y156478D01*
X644099Y156425D01*
X644174Y156375D01*
X644250Y156329D01*
X644328Y156286D01*
X644408Y156247D01*
X644490Y156211D01*
X644573Y156178D01*
X644658Y156150D01*
X644743Y156125D01*
X644830Y156103D01*
X644918Y156086D01*
X645006Y156073D01*
X645095Y156063D01*
X645184Y156057D01*
X645273Y156055D01*
X647319Y156055D01*
X644864Y156055D02*
X643227Y152781D01*
X635962Y158306D02*
X635964Y158391D01*
X635970Y158476D01*
X635980Y158560D01*
X635993Y158644D01*
X636011Y158728D01*
X636032Y158810D01*
X636057Y158891D01*
X636086Y158971D01*
X636119Y159050D01*
X636155Y159127D01*
X636195Y159202D01*
X636238Y159276D01*
X636284Y159347D01*
X636334Y159416D01*
X636387Y159483D01*
X636443Y159547D01*
X636502Y159608D01*
X636563Y159667D01*
X636627Y159723D01*
X636694Y159776D01*
X636763Y159826D01*
X636834Y159872D01*
X636908Y159915D01*
X636983Y159955D01*
X637060Y159991D01*
X637139Y160024D01*
X637219Y160053D01*
X637300Y160078D01*
X637382Y160099D01*
X637466Y160117D01*
X637550Y160130D01*
X637634Y160140D01*
X637719Y160146D01*
X637804Y160148D01*
X637804Y160147D02*
X637900Y160145D01*
X637996Y160139D01*
X638091Y160129D01*
X638186Y160116D01*
X638281Y160098D01*
X638374Y160077D01*
X638467Y160052D01*
X638558Y160023D01*
X638649Y159991D01*
X638738Y159955D01*
X638825Y159915D01*
X638911Y159872D01*
X638995Y159826D01*
X639077Y159776D01*
X639157Y159722D01*
X639234Y159666D01*
X639309Y159606D01*
X639382Y159544D01*
X639452Y159478D01*
X639520Y159410D01*
X639585Y159339D01*
X639646Y159266D01*
X639705Y159190D01*
X639761Y159111D01*
X639813Y159031D01*
X639862Y158948D01*
X639908Y158864D01*
X639950Y158778D01*
X639988Y158690D01*
X640023Y158601D01*
X640055Y158510D01*
X636577Y156874D02*
X636517Y156933D01*
X636460Y156995D01*
X636405Y157059D01*
X636354Y157126D01*
X636305Y157195D01*
X636259Y157265D01*
X636216Y157338D01*
X636176Y157412D01*
X636140Y157488D01*
X636107Y157566D01*
X636077Y157645D01*
X636050Y157725D01*
X636027Y157806D01*
X636008Y157888D01*
X635992Y157970D01*
X635979Y158054D01*
X635970Y158138D01*
X635965Y158222D01*
X635963Y158306D01*
X636577Y156873D02*
X640055Y152781D01*
X635963Y152781D01*
D12*
X92300Y133350D02*
X92307Y133890D01*
X92326Y134429D01*
X92360Y134968D01*
X92406Y135506D01*
X92465Y136043D01*
X92538Y136578D01*
X92624Y137111D01*
X92723Y137642D01*
X92835Y138170D01*
X92959Y138696D01*
X93097Y139218D01*
X93247Y139736D01*
X93410Y140251D01*
X93586Y140762D01*
X93774Y141268D01*
X93975Y141769D01*
X94187Y142265D01*
X94412Y142756D01*
X94649Y143241D01*
X94898Y143721D01*
X95158Y144194D01*
X95430Y144660D01*
X95713Y145120D01*
X96008Y145573D01*
X96313Y146018D01*
X96629Y146455D01*
X96956Y146885D01*
X97294Y147307D01*
X97641Y147720D01*
X97999Y148124D01*
X98367Y148520D01*
X98744Y148906D01*
X99130Y149283D01*
X99526Y149651D01*
X99930Y150009D01*
X100343Y150356D01*
X100765Y150694D01*
X101195Y151021D01*
X101632Y151337D01*
X102077Y151642D01*
X102530Y151937D01*
X102990Y152220D01*
X103456Y152492D01*
X103929Y152752D01*
X104409Y153001D01*
X104894Y153238D01*
X105385Y153463D01*
X105881Y153675D01*
X106382Y153876D01*
X106888Y154064D01*
X107399Y154240D01*
X107914Y154403D01*
X108432Y154553D01*
X108954Y154691D01*
X109480Y154815D01*
X110008Y154927D01*
X110539Y155026D01*
X111072Y155112D01*
X111607Y155185D01*
X112144Y155244D01*
X112682Y155290D01*
X113221Y155324D01*
X113760Y155343D01*
X114300Y155350D01*
X114840Y155343D01*
X115379Y155324D01*
X115918Y155290D01*
X116456Y155244D01*
X116993Y155185D01*
X117528Y155112D01*
X118061Y155026D01*
X118592Y154927D01*
X119120Y154815D01*
X119646Y154691D01*
X120168Y154553D01*
X120686Y154403D01*
X121201Y154240D01*
X121712Y154064D01*
X122218Y153876D01*
X122719Y153675D01*
X123215Y153463D01*
X123706Y153238D01*
X124191Y153001D01*
X124671Y152752D01*
X125144Y152492D01*
X125610Y152220D01*
X126070Y151937D01*
X126523Y151642D01*
X126968Y151337D01*
X127405Y151021D01*
X127835Y150694D01*
X128257Y150356D01*
X128670Y150009D01*
X129074Y149651D01*
X129470Y149283D01*
X129856Y148906D01*
X130233Y148520D01*
X130601Y148124D01*
X130959Y147720D01*
X131306Y147307D01*
X131644Y146885D01*
X131971Y146455D01*
X132287Y146018D01*
X132592Y145573D01*
X132887Y145120D01*
X133170Y144660D01*
X133442Y144194D01*
X133702Y143721D01*
X133951Y143241D01*
X134188Y142756D01*
X134413Y142265D01*
X134625Y141769D01*
X134826Y141268D01*
X135014Y140762D01*
X135190Y140251D01*
X135353Y139736D01*
X135503Y139218D01*
X135641Y138696D01*
X135765Y138170D01*
X135877Y137642D01*
X135976Y137111D01*
X136062Y136578D01*
X136135Y136043D01*
X136194Y135506D01*
X136240Y134968D01*
X136274Y134429D01*
X136293Y133890D01*
X136300Y133350D01*
X136293Y132810D01*
X136274Y132271D01*
X136240Y131732D01*
X136194Y131194D01*
X136135Y130657D01*
X136062Y130122D01*
X135976Y129589D01*
X135877Y129058D01*
X135765Y128530D01*
X135641Y128004D01*
X135503Y127482D01*
X135353Y126964D01*
X135190Y126449D01*
X135014Y125938D01*
X134826Y125432D01*
X134625Y124931D01*
X134413Y124435D01*
X134188Y123944D01*
X133951Y123459D01*
X133702Y122979D01*
X133442Y122506D01*
X133170Y122040D01*
X132887Y121580D01*
X132592Y121127D01*
X132287Y120682D01*
X131971Y120245D01*
X131644Y119815D01*
X131306Y119393D01*
X130959Y118980D01*
X130601Y118576D01*
X130233Y118180D01*
X129856Y117794D01*
X129470Y117417D01*
X129074Y117049D01*
X128670Y116691D01*
X128257Y116344D01*
X127835Y116006D01*
X127405Y115679D01*
X126968Y115363D01*
X126523Y115058D01*
X126070Y114763D01*
X125610Y114480D01*
X125144Y114208D01*
X124671Y113948D01*
X124191Y113699D01*
X123706Y113462D01*
X123215Y113237D01*
X122719Y113025D01*
X122218Y112824D01*
X121712Y112636D01*
X121201Y112460D01*
X120686Y112297D01*
X120168Y112147D01*
X119646Y112009D01*
X119120Y111885D01*
X118592Y111773D01*
X118061Y111674D01*
X117528Y111588D01*
X116993Y111515D01*
X116456Y111456D01*
X115918Y111410D01*
X115379Y111376D01*
X114840Y111357D01*
X114300Y111350D01*
X113760Y111357D01*
X113221Y111376D01*
X112682Y111410D01*
X112144Y111456D01*
X111607Y111515D01*
X111072Y111588D01*
X110539Y111674D01*
X110008Y111773D01*
X109480Y111885D01*
X108954Y112009D01*
X108432Y112147D01*
X107914Y112297D01*
X107399Y112460D01*
X106888Y112636D01*
X106382Y112824D01*
X105881Y113025D01*
X105385Y113237D01*
X104894Y113462D01*
X104409Y113699D01*
X103929Y113948D01*
X103456Y114208D01*
X102990Y114480D01*
X102530Y114763D01*
X102077Y115058D01*
X101632Y115363D01*
X101195Y115679D01*
X100765Y116006D01*
X100343Y116344D01*
X99930Y116691D01*
X99526Y117049D01*
X99130Y117417D01*
X98744Y117794D01*
X98367Y118180D01*
X97999Y118576D01*
X97641Y118980D01*
X97294Y119393D01*
X96956Y119815D01*
X96629Y120245D01*
X96313Y120682D01*
X96008Y121127D01*
X95713Y121580D01*
X95430Y122040D01*
X95158Y122506D01*
X94898Y122979D01*
X94649Y123459D01*
X94412Y123944D01*
X94187Y124435D01*
X93975Y124931D01*
X93774Y125432D01*
X93586Y125938D01*
X93410Y126449D01*
X93247Y126964D01*
X93097Y127482D01*
X92959Y128004D01*
X92835Y128530D01*
X92723Y129058D01*
X92624Y129589D01*
X92538Y130122D01*
X92465Y130657D01*
X92406Y131194D01*
X92360Y131732D01*
X92326Y132271D01*
X92307Y132810D01*
X92300Y133350D01*
X92300Y704850D02*
X92307Y705390D01*
X92326Y705929D01*
X92360Y706468D01*
X92406Y707006D01*
X92465Y707543D01*
X92538Y708078D01*
X92624Y708611D01*
X92723Y709142D01*
X92835Y709670D01*
X92959Y710196D01*
X93097Y710718D01*
X93247Y711236D01*
X93410Y711751D01*
X93586Y712262D01*
X93774Y712768D01*
X93975Y713269D01*
X94187Y713765D01*
X94412Y714256D01*
X94649Y714741D01*
X94898Y715221D01*
X95158Y715694D01*
X95430Y716160D01*
X95713Y716620D01*
X96008Y717073D01*
X96313Y717518D01*
X96629Y717955D01*
X96956Y718385D01*
X97294Y718807D01*
X97641Y719220D01*
X97999Y719624D01*
X98367Y720020D01*
X98744Y720406D01*
X99130Y720783D01*
X99526Y721151D01*
X99930Y721509D01*
X100343Y721856D01*
X100765Y722194D01*
X101195Y722521D01*
X101632Y722837D01*
X102077Y723142D01*
X102530Y723437D01*
X102990Y723720D01*
X103456Y723992D01*
X103929Y724252D01*
X104409Y724501D01*
X104894Y724738D01*
X105385Y724963D01*
X105881Y725175D01*
X106382Y725376D01*
X106888Y725564D01*
X107399Y725740D01*
X107914Y725903D01*
X108432Y726053D01*
X108954Y726191D01*
X109480Y726315D01*
X110008Y726427D01*
X110539Y726526D01*
X111072Y726612D01*
X111607Y726685D01*
X112144Y726744D01*
X112682Y726790D01*
X113221Y726824D01*
X113760Y726843D01*
X114300Y726850D01*
X114840Y726843D01*
X115379Y726824D01*
X115918Y726790D01*
X116456Y726744D01*
X116993Y726685D01*
X117528Y726612D01*
X118061Y726526D01*
X118592Y726427D01*
X119120Y726315D01*
X119646Y726191D01*
X120168Y726053D01*
X120686Y725903D01*
X121201Y725740D01*
X121712Y725564D01*
X122218Y725376D01*
X122719Y725175D01*
X123215Y724963D01*
X123706Y724738D01*
X124191Y724501D01*
X124671Y724252D01*
X125144Y723992D01*
X125610Y723720D01*
X126070Y723437D01*
X126523Y723142D01*
X126968Y722837D01*
X127405Y722521D01*
X127835Y722194D01*
X128257Y721856D01*
X128670Y721509D01*
X129074Y721151D01*
X129470Y720783D01*
X129856Y720406D01*
X130233Y720020D01*
X130601Y719624D01*
X130959Y719220D01*
X131306Y718807D01*
X131644Y718385D01*
X131971Y717955D01*
X132287Y717518D01*
X132592Y717073D01*
X132887Y716620D01*
X133170Y716160D01*
X133442Y715694D01*
X133702Y715221D01*
X133951Y714741D01*
X134188Y714256D01*
X134413Y713765D01*
X134625Y713269D01*
X134826Y712768D01*
X135014Y712262D01*
X135190Y711751D01*
X135353Y711236D01*
X135503Y710718D01*
X135641Y710196D01*
X135765Y709670D01*
X135877Y709142D01*
X135976Y708611D01*
X136062Y708078D01*
X136135Y707543D01*
X136194Y707006D01*
X136240Y706468D01*
X136274Y705929D01*
X136293Y705390D01*
X136300Y704850D01*
X136293Y704310D01*
X136274Y703771D01*
X136240Y703232D01*
X136194Y702694D01*
X136135Y702157D01*
X136062Y701622D01*
X135976Y701089D01*
X135877Y700558D01*
X135765Y700030D01*
X135641Y699504D01*
X135503Y698982D01*
X135353Y698464D01*
X135190Y697949D01*
X135014Y697438D01*
X134826Y696932D01*
X134625Y696431D01*
X134413Y695935D01*
X134188Y695444D01*
X133951Y694959D01*
X133702Y694479D01*
X133442Y694006D01*
X133170Y693540D01*
X132887Y693080D01*
X132592Y692627D01*
X132287Y692182D01*
X131971Y691745D01*
X131644Y691315D01*
X131306Y690893D01*
X130959Y690480D01*
X130601Y690076D01*
X130233Y689680D01*
X129856Y689294D01*
X129470Y688917D01*
X129074Y688549D01*
X128670Y688191D01*
X128257Y687844D01*
X127835Y687506D01*
X127405Y687179D01*
X126968Y686863D01*
X126523Y686558D01*
X126070Y686263D01*
X125610Y685980D01*
X125144Y685708D01*
X124671Y685448D01*
X124191Y685199D01*
X123706Y684962D01*
X123215Y684737D01*
X122719Y684525D01*
X122218Y684324D01*
X121712Y684136D01*
X121201Y683960D01*
X120686Y683797D01*
X120168Y683647D01*
X119646Y683509D01*
X119120Y683385D01*
X118592Y683273D01*
X118061Y683174D01*
X117528Y683088D01*
X116993Y683015D01*
X116456Y682956D01*
X115918Y682910D01*
X115379Y682876D01*
X114840Y682857D01*
X114300Y682850D01*
X113760Y682857D01*
X113221Y682876D01*
X112682Y682910D01*
X112144Y682956D01*
X111607Y683015D01*
X111072Y683088D01*
X110539Y683174D01*
X110008Y683273D01*
X109480Y683385D01*
X108954Y683509D01*
X108432Y683647D01*
X107914Y683797D01*
X107399Y683960D01*
X106888Y684136D01*
X106382Y684324D01*
X105881Y684525D01*
X105385Y684737D01*
X104894Y684962D01*
X104409Y685199D01*
X103929Y685448D01*
X103456Y685708D01*
X102990Y685980D01*
X102530Y686263D01*
X102077Y686558D01*
X101632Y686863D01*
X101195Y687179D01*
X100765Y687506D01*
X100343Y687844D01*
X99930Y688191D01*
X99526Y688549D01*
X99130Y688917D01*
X98744Y689294D01*
X98367Y689680D01*
X97999Y690076D01*
X97641Y690480D01*
X97294Y690893D01*
X96956Y691315D01*
X96629Y691745D01*
X96313Y692182D01*
X96008Y692627D01*
X95713Y693080D01*
X95430Y693540D01*
X95158Y694006D01*
X94898Y694479D01*
X94649Y694959D01*
X94412Y695444D01*
X94187Y695935D01*
X93975Y696431D01*
X93774Y696932D01*
X93586Y697438D01*
X93410Y697949D01*
X93247Y698464D01*
X93097Y698982D01*
X92959Y699504D01*
X92835Y700030D01*
X92723Y700558D01*
X92624Y701089D01*
X92538Y701622D01*
X92465Y702157D01*
X92406Y702694D01*
X92360Y703232D01*
X92326Y703771D01*
X92307Y704310D01*
X92300Y704850D01*
X854300Y133350D02*
X854307Y133890D01*
X854326Y134429D01*
X854360Y134968D01*
X854406Y135506D01*
X854465Y136043D01*
X854538Y136578D01*
X854624Y137111D01*
X854723Y137642D01*
X854835Y138170D01*
X854959Y138696D01*
X855097Y139218D01*
X855247Y139736D01*
X855410Y140251D01*
X855586Y140762D01*
X855774Y141268D01*
X855975Y141769D01*
X856187Y142265D01*
X856412Y142756D01*
X856649Y143241D01*
X856898Y143721D01*
X857158Y144194D01*
X857430Y144660D01*
X857713Y145120D01*
X858008Y145573D01*
X858313Y146018D01*
X858629Y146455D01*
X858956Y146885D01*
X859294Y147307D01*
X859641Y147720D01*
X859999Y148124D01*
X860367Y148520D01*
X860744Y148906D01*
X861130Y149283D01*
X861526Y149651D01*
X861930Y150009D01*
X862343Y150356D01*
X862765Y150694D01*
X863195Y151021D01*
X863632Y151337D01*
X864077Y151642D01*
X864530Y151937D01*
X864990Y152220D01*
X865456Y152492D01*
X865929Y152752D01*
X866409Y153001D01*
X866894Y153238D01*
X867385Y153463D01*
X867881Y153675D01*
X868382Y153876D01*
X868888Y154064D01*
X869399Y154240D01*
X869914Y154403D01*
X870432Y154553D01*
X870954Y154691D01*
X871480Y154815D01*
X872008Y154927D01*
X872539Y155026D01*
X873072Y155112D01*
X873607Y155185D01*
X874144Y155244D01*
X874682Y155290D01*
X875221Y155324D01*
X875760Y155343D01*
X876300Y155350D01*
X876840Y155343D01*
X877379Y155324D01*
X877918Y155290D01*
X878456Y155244D01*
X878993Y155185D01*
X879528Y155112D01*
X880061Y155026D01*
X880592Y154927D01*
X881120Y154815D01*
X881646Y154691D01*
X882168Y154553D01*
X882686Y154403D01*
X883201Y154240D01*
X883712Y154064D01*
X884218Y153876D01*
X884719Y153675D01*
X885215Y153463D01*
X885706Y153238D01*
X886191Y153001D01*
X886671Y152752D01*
X887144Y152492D01*
X887610Y152220D01*
X888070Y151937D01*
X888523Y151642D01*
X888968Y151337D01*
X889405Y151021D01*
X889835Y150694D01*
X890257Y150356D01*
X890670Y150009D01*
X891074Y149651D01*
X891470Y149283D01*
X891856Y148906D01*
X892233Y148520D01*
X892601Y148124D01*
X892959Y147720D01*
X893306Y147307D01*
X893644Y146885D01*
X893971Y146455D01*
X894287Y146018D01*
X894592Y145573D01*
X894887Y145120D01*
X895170Y144660D01*
X895442Y144194D01*
X895702Y143721D01*
X895951Y143241D01*
X896188Y142756D01*
X896413Y142265D01*
X896625Y141769D01*
X896826Y141268D01*
X897014Y140762D01*
X897190Y140251D01*
X897353Y139736D01*
X897503Y139218D01*
X897641Y138696D01*
X897765Y138170D01*
X897877Y137642D01*
X897976Y137111D01*
X898062Y136578D01*
X898135Y136043D01*
X898194Y135506D01*
X898240Y134968D01*
X898274Y134429D01*
X898293Y133890D01*
X898300Y133350D01*
X898293Y132810D01*
X898274Y132271D01*
X898240Y131732D01*
X898194Y131194D01*
X898135Y130657D01*
X898062Y130122D01*
X897976Y129589D01*
X897877Y129058D01*
X897765Y128530D01*
X897641Y128004D01*
X897503Y127482D01*
X897353Y126964D01*
X897190Y126449D01*
X897014Y125938D01*
X896826Y125432D01*
X896625Y124931D01*
X896413Y124435D01*
X896188Y123944D01*
X895951Y123459D01*
X895702Y122979D01*
X895442Y122506D01*
X895170Y122040D01*
X894887Y121580D01*
X894592Y121127D01*
X894287Y120682D01*
X893971Y120245D01*
X893644Y119815D01*
X893306Y119393D01*
X892959Y118980D01*
X892601Y118576D01*
X892233Y118180D01*
X891856Y117794D01*
X891470Y117417D01*
X891074Y117049D01*
X890670Y116691D01*
X890257Y116344D01*
X889835Y116006D01*
X889405Y115679D01*
X888968Y115363D01*
X888523Y115058D01*
X888070Y114763D01*
X887610Y114480D01*
X887144Y114208D01*
X886671Y113948D01*
X886191Y113699D01*
X885706Y113462D01*
X885215Y113237D01*
X884719Y113025D01*
X884218Y112824D01*
X883712Y112636D01*
X883201Y112460D01*
X882686Y112297D01*
X882168Y112147D01*
X881646Y112009D01*
X881120Y111885D01*
X880592Y111773D01*
X880061Y111674D01*
X879528Y111588D01*
X878993Y111515D01*
X878456Y111456D01*
X877918Y111410D01*
X877379Y111376D01*
X876840Y111357D01*
X876300Y111350D01*
X875760Y111357D01*
X875221Y111376D01*
X874682Y111410D01*
X874144Y111456D01*
X873607Y111515D01*
X873072Y111588D01*
X872539Y111674D01*
X872008Y111773D01*
X871480Y111885D01*
X870954Y112009D01*
X870432Y112147D01*
X869914Y112297D01*
X869399Y112460D01*
X868888Y112636D01*
X868382Y112824D01*
X867881Y113025D01*
X867385Y113237D01*
X866894Y113462D01*
X866409Y113699D01*
X865929Y113948D01*
X865456Y114208D01*
X864990Y114480D01*
X864530Y114763D01*
X864077Y115058D01*
X863632Y115363D01*
X863195Y115679D01*
X862765Y116006D01*
X862343Y116344D01*
X861930Y116691D01*
X861526Y117049D01*
X861130Y117417D01*
X860744Y117794D01*
X860367Y118180D01*
X859999Y118576D01*
X859641Y118980D01*
X859294Y119393D01*
X858956Y119815D01*
X858629Y120245D01*
X858313Y120682D01*
X858008Y121127D01*
X857713Y121580D01*
X857430Y122040D01*
X857158Y122506D01*
X856898Y122979D01*
X856649Y123459D01*
X856412Y123944D01*
X856187Y124435D01*
X855975Y124931D01*
X855774Y125432D01*
X855586Y125938D01*
X855410Y126449D01*
X855247Y126964D01*
X855097Y127482D01*
X854959Y128004D01*
X854835Y128530D01*
X854723Y129058D01*
X854624Y129589D01*
X854538Y130122D01*
X854465Y130657D01*
X854406Y131194D01*
X854360Y131732D01*
X854326Y132271D01*
X854307Y132810D01*
X854300Y133350D01*
X854300Y704850D02*
X854307Y705390D01*
X854326Y705929D01*
X854360Y706468D01*
X854406Y707006D01*
X854465Y707543D01*
X854538Y708078D01*
X854624Y708611D01*
X854723Y709142D01*
X854835Y709670D01*
X854959Y710196D01*
X855097Y710718D01*
X855247Y711236D01*
X855410Y711751D01*
X855586Y712262D01*
X855774Y712768D01*
X855975Y713269D01*
X856187Y713765D01*
X856412Y714256D01*
X856649Y714741D01*
X856898Y715221D01*
X857158Y715694D01*
X857430Y716160D01*
X857713Y716620D01*
X858008Y717073D01*
X858313Y717518D01*
X858629Y717955D01*
X858956Y718385D01*
X859294Y718807D01*
X859641Y719220D01*
X859999Y719624D01*
X860367Y720020D01*
X860744Y720406D01*
X861130Y720783D01*
X861526Y721151D01*
X861930Y721509D01*
X862343Y721856D01*
X862765Y722194D01*
X863195Y722521D01*
X863632Y722837D01*
X864077Y723142D01*
X864530Y723437D01*
X864990Y723720D01*
X865456Y723992D01*
X865929Y724252D01*
X866409Y724501D01*
X866894Y724738D01*
X867385Y724963D01*
X867881Y725175D01*
X868382Y725376D01*
X868888Y725564D01*
X869399Y725740D01*
X869914Y725903D01*
X870432Y726053D01*
X870954Y726191D01*
X871480Y726315D01*
X872008Y726427D01*
X872539Y726526D01*
X873072Y726612D01*
X873607Y726685D01*
X874144Y726744D01*
X874682Y726790D01*
X875221Y726824D01*
X875760Y726843D01*
X876300Y726850D01*
X876840Y726843D01*
X877379Y726824D01*
X877918Y726790D01*
X878456Y726744D01*
X878993Y726685D01*
X879528Y726612D01*
X880061Y726526D01*
X880592Y726427D01*
X881120Y726315D01*
X881646Y726191D01*
X882168Y726053D01*
X882686Y725903D01*
X883201Y725740D01*
X883712Y725564D01*
X884218Y725376D01*
X884719Y725175D01*
X885215Y724963D01*
X885706Y724738D01*
X886191Y724501D01*
X886671Y724252D01*
X887144Y723992D01*
X887610Y723720D01*
X888070Y723437D01*
X888523Y723142D01*
X888968Y722837D01*
X889405Y722521D01*
X889835Y722194D01*
X890257Y721856D01*
X890670Y721509D01*
X891074Y721151D01*
X891470Y720783D01*
X891856Y720406D01*
X892233Y720020D01*
X892601Y719624D01*
X892959Y719220D01*
X893306Y718807D01*
X893644Y718385D01*
X893971Y717955D01*
X894287Y717518D01*
X894592Y717073D01*
X894887Y716620D01*
X895170Y716160D01*
X895442Y715694D01*
X895702Y715221D01*
X895951Y714741D01*
X896188Y714256D01*
X896413Y713765D01*
X896625Y713269D01*
X896826Y712768D01*
X897014Y712262D01*
X897190Y711751D01*
X897353Y711236D01*
X897503Y710718D01*
X897641Y710196D01*
X897765Y709670D01*
X897877Y709142D01*
X897976Y708611D01*
X898062Y708078D01*
X898135Y707543D01*
X898194Y707006D01*
X898240Y706468D01*
X898274Y705929D01*
X898293Y705390D01*
X898300Y704850D01*
X898293Y704310D01*
X898274Y703771D01*
X898240Y703232D01*
X898194Y702694D01*
X898135Y702157D01*
X898062Y701622D01*
X897976Y701089D01*
X897877Y700558D01*
X897765Y700030D01*
X897641Y699504D01*
X897503Y698982D01*
X897353Y698464D01*
X897190Y697949D01*
X897014Y697438D01*
X896826Y696932D01*
X896625Y696431D01*
X896413Y695935D01*
X896188Y695444D01*
X895951Y694959D01*
X895702Y694479D01*
X895442Y694006D01*
X895170Y693540D01*
X894887Y693080D01*
X894592Y692627D01*
X894287Y692182D01*
X893971Y691745D01*
X893644Y691315D01*
X893306Y690893D01*
X892959Y690480D01*
X892601Y690076D01*
X892233Y689680D01*
X891856Y689294D01*
X891470Y688917D01*
X891074Y688549D01*
X890670Y688191D01*
X890257Y687844D01*
X889835Y687506D01*
X889405Y687179D01*
X888968Y686863D01*
X888523Y686558D01*
X888070Y686263D01*
X887610Y685980D01*
X887144Y685708D01*
X886671Y685448D01*
X886191Y685199D01*
X885706Y684962D01*
X885215Y684737D01*
X884719Y684525D01*
X884218Y684324D01*
X883712Y684136D01*
X883201Y683960D01*
X882686Y683797D01*
X882168Y683647D01*
X881646Y683509D01*
X881120Y683385D01*
X880592Y683273D01*
X880061Y683174D01*
X879528Y683088D01*
X878993Y683015D01*
X878456Y682956D01*
X877918Y682910D01*
X877379Y682876D01*
X876840Y682857D01*
X876300Y682850D01*
X875760Y682857D01*
X875221Y682876D01*
X874682Y682910D01*
X874144Y682956D01*
X873607Y683015D01*
X873072Y683088D01*
X872539Y683174D01*
X872008Y683273D01*
X871480Y683385D01*
X870954Y683509D01*
X870432Y683647D01*
X869914Y683797D01*
X869399Y683960D01*
X868888Y684136D01*
X868382Y684324D01*
X867881Y684525D01*
X867385Y684737D01*
X866894Y684962D01*
X866409Y685199D01*
X865929Y685448D01*
X865456Y685708D01*
X864990Y685980D01*
X864530Y686263D01*
X864077Y686558D01*
X863632Y686863D01*
X863195Y687179D01*
X862765Y687506D01*
X862343Y687844D01*
X861930Y688191D01*
X861526Y688549D01*
X861130Y688917D01*
X860744Y689294D01*
X860367Y689680D01*
X859999Y690076D01*
X859641Y690480D01*
X859294Y690893D01*
X858956Y691315D01*
X858629Y691745D01*
X858313Y692182D01*
X858008Y692627D01*
X857713Y693080D01*
X857430Y693540D01*
X857158Y694006D01*
X856898Y694479D01*
X856649Y694959D01*
X856412Y695444D01*
X856187Y695935D01*
X855975Y696431D01*
X855774Y696932D01*
X855586Y697438D01*
X855410Y697949D01*
X855247Y698464D01*
X855097Y698982D01*
X854959Y699504D01*
X854835Y700030D01*
X854723Y700558D01*
X854624Y701089D01*
X854538Y701622D01*
X854465Y702157D01*
X854406Y702694D01*
X854360Y703232D01*
X854326Y703771D01*
X854307Y704310D01*
X854300Y704850D01*
D13*
X114300Y106680D02*
X113686Y106687D01*
X113073Y106710D01*
X112460Y106747D01*
X111849Y106799D01*
X111238Y106865D01*
X110630Y106947D01*
X110024Y107043D01*
X109420Y107153D01*
X108819Y107278D01*
X108221Y107418D01*
X107627Y107572D01*
X107037Y107741D01*
X106451Y107923D01*
X105870Y108120D01*
X105293Y108331D01*
X104722Y108555D01*
X104156Y108793D01*
X103596Y109045D01*
X103043Y109311D01*
X102496Y109589D01*
X101956Y109881D01*
X101423Y110186D01*
X100898Y110504D01*
X100380Y110834D01*
X99871Y111176D01*
X99370Y111531D01*
X98878Y111898D01*
X98395Y112276D01*
X97921Y112666D01*
X97457Y113068D01*
X97002Y113480D01*
X96558Y113904D01*
X96124Y114338D01*
X95700Y114782D01*
X95288Y115237D01*
X94886Y115701D01*
X94496Y116175D01*
X94118Y116658D01*
X93751Y117150D01*
X93396Y117651D01*
X93054Y118160D01*
X92724Y118678D01*
X92406Y119203D01*
X92101Y119736D01*
X91809Y120276D01*
X91531Y120823D01*
X91265Y121376D01*
X91013Y121936D01*
X90775Y122502D01*
X90551Y123073D01*
X90340Y123650D01*
X90143Y124231D01*
X89961Y124817D01*
X89792Y125407D01*
X89638Y126001D01*
X89498Y126599D01*
X89373Y127200D01*
X89263Y127804D01*
X89167Y128410D01*
X89085Y129018D01*
X89019Y129629D01*
X88967Y130240D01*
X88930Y130853D01*
X88907Y131466D01*
X88900Y132080D01*
X88900Y706120D01*
X88907Y706734D01*
X88930Y707347D01*
X88967Y707960D01*
X89019Y708571D01*
X89085Y709182D01*
X89167Y709790D01*
X89263Y710396D01*
X89373Y711000D01*
X89498Y711601D01*
X89638Y712199D01*
X89792Y712793D01*
X89961Y713383D01*
X90143Y713969D01*
X90340Y714550D01*
X90551Y715127D01*
X90775Y715698D01*
X91013Y716264D01*
X91265Y716824D01*
X91531Y717377D01*
X91809Y717924D01*
X92101Y718464D01*
X92406Y718997D01*
X92724Y719522D01*
X93054Y720040D01*
X93396Y720549D01*
X93751Y721050D01*
X94118Y721542D01*
X94496Y722025D01*
X94886Y722499D01*
X95288Y722963D01*
X95700Y723418D01*
X96124Y723862D01*
X96558Y724296D01*
X97002Y724720D01*
X97457Y725132D01*
X97921Y725534D01*
X98395Y725924D01*
X98878Y726302D01*
X99370Y726669D01*
X99871Y727024D01*
X100380Y727366D01*
X100898Y727696D01*
X101423Y728014D01*
X101956Y728319D01*
X102496Y728611D01*
X103043Y728889D01*
X103596Y729155D01*
X104156Y729407D01*
X104722Y729645D01*
X105293Y729869D01*
X105870Y730080D01*
X106451Y730277D01*
X107037Y730459D01*
X107627Y730628D01*
X108221Y730782D01*
X108819Y730922D01*
X109420Y731047D01*
X110024Y731157D01*
X110630Y731253D01*
X111238Y731335D01*
X111849Y731401D01*
X112460Y731453D01*
X113073Y731490D01*
X113686Y731513D01*
X114300Y731520D01*
X114914Y731513D01*
X115527Y731490D01*
X116140Y731453D01*
X116751Y731401D01*
X117362Y731335D01*
X117970Y731253D01*
X118576Y731157D01*
X119180Y731047D01*
X119781Y730922D01*
X120379Y730782D01*
X120973Y730628D01*
X121563Y730459D01*
X122149Y730277D01*
X122730Y730080D01*
X123307Y729869D01*
X123878Y729645D01*
X124444Y729407D01*
X125004Y729155D01*
X125557Y728889D01*
X126104Y728611D01*
X126644Y728319D01*
X127177Y728014D01*
X127702Y727696D01*
X128220Y727366D01*
X128729Y727024D01*
X129230Y726669D01*
X129722Y726302D01*
X130205Y725924D01*
X130679Y725534D01*
X131143Y725132D01*
X131598Y724720D01*
X132042Y724296D01*
X132476Y723862D01*
X132900Y723418D01*
X133312Y722963D01*
X133714Y722499D01*
X134104Y722025D01*
X134482Y721542D01*
X134849Y721050D01*
X135204Y720549D01*
X135546Y720040D01*
X135876Y719522D01*
X136194Y718997D01*
X136499Y718464D01*
X136791Y717924D01*
X137069Y717377D01*
X137335Y716824D01*
X137587Y716264D01*
X137825Y715698D01*
X138049Y715127D01*
X138260Y714550D01*
X138457Y713969D01*
X138639Y713383D01*
X138808Y712793D01*
X138962Y712199D01*
X139102Y711601D01*
X139227Y711000D01*
X139337Y710396D01*
X139433Y709790D01*
X139515Y709182D01*
X139581Y708571D01*
X139633Y707960D01*
X139670Y707347D01*
X139693Y706734D01*
X139700Y706120D01*
X139700Y673100D01*
X850900Y673100D01*
X850900Y706120D01*
X850907Y706734D01*
X850930Y707347D01*
X850967Y707960D01*
X851019Y708571D01*
X851085Y709182D01*
X851167Y709790D01*
X851263Y710396D01*
X851373Y711000D01*
X851498Y711601D01*
X851638Y712199D01*
X851792Y712793D01*
X851961Y713383D01*
X852143Y713969D01*
X852340Y714550D01*
X852551Y715127D01*
X852775Y715698D01*
X853013Y716264D01*
X853265Y716824D01*
X853531Y717377D01*
X853809Y717924D01*
X854101Y718464D01*
X854406Y718997D01*
X854724Y719522D01*
X855054Y720040D01*
X855396Y720549D01*
X855751Y721050D01*
X856118Y721542D01*
X856496Y722025D01*
X856886Y722499D01*
X857288Y722963D01*
X857700Y723418D01*
X858124Y723862D01*
X858558Y724296D01*
X859002Y724720D01*
X859457Y725132D01*
X859921Y725534D01*
X860395Y725924D01*
X860878Y726302D01*
X861370Y726669D01*
X861871Y727024D01*
X862380Y727366D01*
X862898Y727696D01*
X863423Y728014D01*
X863956Y728319D01*
X864496Y728611D01*
X865043Y728889D01*
X865596Y729155D01*
X866156Y729407D01*
X866722Y729645D01*
X867293Y729869D01*
X867870Y730080D01*
X868451Y730277D01*
X869037Y730459D01*
X869627Y730628D01*
X870221Y730782D01*
X870819Y730922D01*
X871420Y731047D01*
X872024Y731157D01*
X872630Y731253D01*
X873238Y731335D01*
X873849Y731401D01*
X874460Y731453D01*
X875073Y731490D01*
X875686Y731513D01*
X876300Y731520D01*
X876914Y731513D01*
X877527Y731490D01*
X878140Y731453D01*
X878751Y731401D01*
X879362Y731335D01*
X879970Y731253D01*
X880576Y731157D01*
X881180Y731047D01*
X881781Y730922D01*
X882379Y730782D01*
X882973Y730628D01*
X883563Y730459D01*
X884149Y730277D01*
X884730Y730080D01*
X885307Y729869D01*
X885878Y729645D01*
X886444Y729407D01*
X887004Y729155D01*
X887557Y728889D01*
X888104Y728611D01*
X888644Y728319D01*
X889177Y728014D01*
X889702Y727696D01*
X890220Y727366D01*
X890729Y727024D01*
X891230Y726669D01*
X891722Y726302D01*
X892205Y725924D01*
X892679Y725534D01*
X893143Y725132D01*
X893598Y724720D01*
X894042Y724296D01*
X894476Y723862D01*
X894900Y723418D01*
X895312Y722963D01*
X895714Y722499D01*
X896104Y722025D01*
X896482Y721542D01*
X896849Y721050D01*
X897204Y720549D01*
X897546Y720040D01*
X897876Y719522D01*
X898194Y718997D01*
X898499Y718464D01*
X898791Y717924D01*
X899069Y717377D01*
X899335Y716824D01*
X899587Y716264D01*
X899825Y715698D01*
X900049Y715127D01*
X900260Y714550D01*
X900457Y713969D01*
X900639Y713383D01*
X900808Y712793D01*
X900962Y712199D01*
X901102Y711601D01*
X901227Y711000D01*
X901337Y710396D01*
X901433Y709790D01*
X901515Y709182D01*
X901581Y708571D01*
X901633Y707960D01*
X901670Y707347D01*
X901693Y706734D01*
X901700Y706120D01*
X901700Y132080D01*
X901693Y131466D01*
X901670Y130853D01*
X901633Y130240D01*
X901581Y129629D01*
X901515Y129018D01*
X901433Y128410D01*
X901337Y127804D01*
X901227Y127200D01*
X901102Y126599D01*
X900962Y126001D01*
X900808Y125407D01*
X900639Y124817D01*
X900457Y124231D01*
X900260Y123650D01*
X900049Y123073D01*
X899825Y122502D01*
X899587Y121936D01*
X899335Y121376D01*
X899069Y120823D01*
X898791Y120276D01*
X898499Y119736D01*
X898194Y119203D01*
X897876Y118678D01*
X897546Y118160D01*
X897204Y117651D01*
X896849Y117150D01*
X896482Y116658D01*
X896104Y116175D01*
X895714Y115701D01*
X895312Y115237D01*
X894900Y114782D01*
X894476Y114338D01*
X894042Y113904D01*
X893598Y113480D01*
X893143Y113068D01*
X892679Y112666D01*
X892205Y112276D01*
X891722Y111898D01*
X891230Y111531D01*
X890729Y111176D01*
X890220Y110834D01*
X889702Y110504D01*
X889177Y110186D01*
X888644Y109881D01*
X888104Y109589D01*
X887557Y109311D01*
X887004Y109045D01*
X886444Y108793D01*
X885878Y108555D01*
X885307Y108331D01*
X884730Y108120D01*
X884149Y107923D01*
X883563Y107741D01*
X882973Y107572D01*
X882379Y107418D01*
X881781Y107278D01*
X881180Y107153D01*
X880576Y107043D01*
X879970Y106947D01*
X879362Y106865D01*
X878751Y106799D01*
X878140Y106747D01*
X877527Y106710D01*
X876914Y106687D01*
X876300Y106680D01*
X875686Y106687D01*
X875073Y106710D01*
X874460Y106747D01*
X873849Y106799D01*
X873238Y106865D01*
X872630Y106947D01*
X872024Y107043D01*
X871420Y107153D01*
X870819Y107278D01*
X870221Y107418D01*
X869627Y107572D01*
X869037Y107741D01*
X868451Y107923D01*
X867870Y108120D01*
X867293Y108331D01*
X866722Y108555D01*
X866156Y108793D01*
X865596Y109045D01*
X865043Y109311D01*
X864496Y109589D01*
X863956Y109881D01*
X863423Y110186D01*
X862898Y110504D01*
X862380Y110834D01*
X861871Y111176D01*
X861370Y111531D01*
X860878Y111898D01*
X860395Y112276D01*
X859921Y112666D01*
X859457Y113068D01*
X859002Y113480D01*
X858558Y113904D01*
X858124Y114338D01*
X857700Y114782D01*
X857288Y115237D01*
X856886Y115701D01*
X856496Y116175D01*
X856118Y116658D01*
X855751Y117150D01*
X855396Y117651D01*
X855054Y118160D01*
X854724Y118678D01*
X854406Y119203D01*
X854101Y119736D01*
X853809Y120276D01*
X853531Y120823D01*
X853265Y121376D01*
X853013Y121936D01*
X852775Y122502D01*
X852551Y123073D01*
X852340Y123650D01*
X852143Y124231D01*
X851961Y124817D01*
X851792Y125407D01*
X851638Y126001D01*
X851498Y126599D01*
X851373Y127200D01*
X851263Y127804D01*
X851167Y128410D01*
X851085Y129018D01*
X851019Y129629D01*
X850967Y130240D01*
X850930Y130853D01*
X850907Y131466D01*
X850900Y132080D01*
X850900Y165100D01*
X139700Y165100D01*
X139700Y132080D01*
X139693Y131466D01*
X139670Y130853D01*
X139633Y130240D01*
X139581Y129629D01*
X139515Y129018D01*
X139433Y128410D01*
X139337Y127804D01*
X139227Y127200D01*
X139102Y126599D01*
X138962Y126001D01*
X138808Y125407D01*
X138639Y124817D01*
X138457Y124231D01*
X138260Y123650D01*
X138049Y123073D01*
X137825Y122502D01*
X137587Y121936D01*
X137335Y121376D01*
X137069Y120823D01*
X136791Y120276D01*
X136499Y119736D01*
X136194Y119203D01*
X135876Y118678D01*
X135546Y118160D01*
X135204Y117651D01*
X134849Y117150D01*
X134482Y116658D01*
X134104Y116175D01*
X133714Y115701D01*
X133312Y115237D01*
X132900Y114782D01*
X132476Y114338D01*
X132042Y113904D01*
X131598Y113480D01*
X131143Y113068D01*
X130679Y112666D01*
X130205Y112276D01*
X129722Y111898D01*
X129230Y111531D01*
X128729Y111176D01*
X128220Y110834D01*
X127702Y110504D01*
X127177Y110186D01*
X126644Y109881D01*
X126104Y109589D01*
X125557Y109311D01*
X125004Y109045D01*
X124444Y108793D01*
X123878Y108555D01*
X123307Y108331D01*
X122730Y108120D01*
X122149Y107923D01*
X121563Y107741D01*
X120973Y107572D01*
X120379Y107418D01*
X119781Y107278D01*
X119180Y107153D01*
X118576Y107043D01*
X117970Y106947D01*
X117362Y106865D01*
X116751Y106799D01*
X116140Y106747D01*
X115527Y106710D01*
X114914Y106687D01*
X114300Y106680D01*
D14*
X826262Y106087D02*
X826264Y106185D01*
X826270Y106282D01*
X826279Y106379D01*
X826293Y106476D01*
X826310Y106572D01*
X826331Y106667D01*
X826355Y106761D01*
X826384Y106855D01*
X826416Y106947D01*
X826451Y107038D01*
X826490Y107127D01*
X826533Y107215D01*
X826579Y107301D01*
X826628Y107385D01*
X826681Y107467D01*
X826736Y107547D01*
X826795Y107625D01*
X826857Y107700D01*
X826922Y107773D01*
X826990Y107843D01*
X827060Y107911D01*
X827133Y107976D01*
X827208Y108038D01*
X827286Y108097D01*
X827366Y108152D01*
X827448Y108205D01*
X827532Y108254D01*
X827618Y108300D01*
X827706Y108343D01*
X827795Y108382D01*
X827886Y108417D01*
X827978Y108449D01*
X828072Y108478D01*
X828166Y108502D01*
X828261Y108523D01*
X828357Y108540D01*
X828454Y108554D01*
X828551Y108563D01*
X828648Y108569D01*
X828746Y108571D01*
X826262Y106087D02*
X826264Y105944D01*
X826270Y105801D01*
X826279Y105659D01*
X826293Y105517D01*
X826311Y105375D01*
X826332Y105234D01*
X826357Y105093D01*
X826386Y104953D01*
X826419Y104814D01*
X826455Y104676D01*
X826496Y104539D01*
X826540Y104403D01*
X826587Y104269D01*
X826639Y104135D01*
X826693Y104004D01*
X826752Y103873D01*
X826814Y103745D01*
X826879Y103618D01*
X826948Y103493D01*
X827021Y103369D01*
X827096Y103248D01*
X827175Y103129D01*
X827257Y103012D01*
X827343Y102898D01*
X827431Y102786D01*
X827522Y102676D01*
X827617Y102569D01*
X827714Y102464D01*
X827814Y102362D01*
X834954Y102672D02*
X835052Y102674D01*
X835149Y102680D01*
X835246Y102689D01*
X835343Y102703D01*
X835439Y102720D01*
X835534Y102741D01*
X835628Y102765D01*
X835722Y102794D01*
X835814Y102826D01*
X835905Y102861D01*
X835994Y102900D01*
X836082Y102943D01*
X836168Y102989D01*
X836252Y103038D01*
X836334Y103091D01*
X836414Y103146D01*
X836492Y103205D01*
X836567Y103267D01*
X836640Y103332D01*
X836710Y103400D01*
X836778Y103470D01*
X836843Y103543D01*
X836905Y103618D01*
X836964Y103696D01*
X837019Y103776D01*
X837072Y103858D01*
X837121Y103942D01*
X837167Y104028D01*
X837210Y104116D01*
X837249Y104205D01*
X837284Y104296D01*
X837316Y104388D01*
X837345Y104482D01*
X837369Y104576D01*
X837390Y104671D01*
X837407Y104767D01*
X837421Y104864D01*
X837430Y104961D01*
X837436Y105058D01*
X837438Y105156D01*
X837436Y105286D01*
X837431Y105416D01*
X837422Y105546D01*
X837409Y105676D01*
X837393Y105805D01*
X837373Y105934D01*
X837349Y106062D01*
X837322Y106190D01*
X837291Y106316D01*
X837257Y106442D01*
X837219Y106567D01*
X837178Y106690D01*
X837133Y106813D01*
X837085Y106934D01*
X837034Y107054D01*
X836979Y107172D01*
X836921Y107288D01*
X836860Y107403D01*
X836795Y107517D01*
X836728Y107628D01*
X836657Y107737D01*
X836583Y107845D01*
X836507Y107950D01*
X832781Y103915D02*
X832832Y103832D01*
X832886Y103751D01*
X832943Y103673D01*
X833003Y103597D01*
X833066Y103523D01*
X833132Y103452D01*
X833200Y103383D01*
X833271Y103317D01*
X833344Y103253D01*
X833420Y103193D01*
X833498Y103136D01*
X833579Y103081D01*
X833661Y103030D01*
X833745Y102982D01*
X833831Y102937D01*
X833919Y102895D01*
X834008Y102857D01*
X834098Y102823D01*
X834190Y102791D01*
X834283Y102764D01*
X834377Y102740D01*
X834472Y102719D01*
X834568Y102703D01*
X834664Y102690D01*
X834760Y102680D01*
X834857Y102675D01*
X834954Y102673D01*
X830919Y107328D02*
X830868Y107411D01*
X830814Y107492D01*
X830757Y107570D01*
X830697Y107646D01*
X830634Y107720D01*
X830568Y107791D01*
X830500Y107860D01*
X830429Y107926D01*
X830356Y107990D01*
X830280Y108050D01*
X830202Y108107D01*
X830121Y108162D01*
X830039Y108213D01*
X829955Y108261D01*
X829869Y108306D01*
X829781Y108348D01*
X829692Y108386D01*
X829602Y108420D01*
X829510Y108452D01*
X829417Y108479D01*
X829323Y108503D01*
X829228Y108524D01*
X829132Y108540D01*
X829036Y108553D01*
X828940Y108563D01*
X828843Y108568D01*
X828746Y108570D01*
X830919Y107329D02*
X832781Y103914D01*
X837438Y114004D02*
X826262Y114004D01*
X837438Y114004D02*
X837438Y117108D01*
X837436Y117219D01*
X837430Y117329D01*
X837420Y117440D01*
X837406Y117550D01*
X837389Y117659D01*
X837367Y117768D01*
X837342Y117876D01*
X837312Y117982D01*
X837279Y118088D01*
X837242Y118193D01*
X837202Y118296D01*
X837157Y118397D01*
X837110Y118497D01*
X837058Y118596D01*
X837003Y118692D01*
X836945Y118786D01*
X836884Y118878D01*
X836819Y118968D01*
X836751Y119056D01*
X836680Y119141D01*
X836606Y119223D01*
X836529Y119303D01*
X836449Y119380D01*
X836367Y119454D01*
X836282Y119525D01*
X836194Y119593D01*
X836104Y119658D01*
X836012Y119719D01*
X835918Y119777D01*
X835822Y119832D01*
X835723Y119884D01*
X835623Y119931D01*
X835522Y119976D01*
X835419Y120016D01*
X835314Y120053D01*
X835208Y120086D01*
X835102Y120116D01*
X834994Y120141D01*
X834885Y120163D01*
X834776Y120180D01*
X834666Y120194D01*
X834555Y120204D01*
X834445Y120210D01*
X834334Y120212D01*
X834223Y120210D01*
X834113Y120204D01*
X834002Y120194D01*
X833892Y120180D01*
X833783Y120163D01*
X833674Y120141D01*
X833566Y120116D01*
X833460Y120086D01*
X833354Y120053D01*
X833249Y120016D01*
X833146Y119976D01*
X833045Y119931D01*
X832945Y119884D01*
X832846Y119832D01*
X832750Y119777D01*
X832656Y119719D01*
X832564Y119658D01*
X832474Y119593D01*
X832386Y119525D01*
X832301Y119454D01*
X832219Y119380D01*
X832139Y119303D01*
X832062Y119223D01*
X831988Y119141D01*
X831917Y119056D01*
X831849Y118968D01*
X831784Y118878D01*
X831723Y118786D01*
X831665Y118692D01*
X831610Y118596D01*
X831558Y118497D01*
X831511Y118397D01*
X831466Y118296D01*
X831426Y118193D01*
X831389Y118088D01*
X831356Y117982D01*
X831326Y117876D01*
X831301Y117768D01*
X831279Y117659D01*
X831262Y117550D01*
X831248Y117440D01*
X831238Y117329D01*
X831232Y117219D01*
X831230Y117108D01*
X831229Y117108D02*
X831229Y114004D01*
X826262Y125659D02*
X837438Y125659D01*
X826262Y124418D02*
X826262Y126901D01*
X837438Y126901D02*
X837438Y124418D01*
X837438Y132080D02*
X826262Y132080D01*
X837438Y132080D02*
X837438Y135184D01*
X837436Y135295D01*
X837430Y135405D01*
X837420Y135516D01*
X837406Y135626D01*
X837389Y135735D01*
X837367Y135844D01*
X837342Y135952D01*
X837312Y136058D01*
X837279Y136164D01*
X837242Y136269D01*
X837202Y136372D01*
X837157Y136473D01*
X837110Y136573D01*
X837058Y136672D01*
X837003Y136768D01*
X836945Y136862D01*
X836884Y136954D01*
X836819Y137044D01*
X836751Y137132D01*
X836680Y137217D01*
X836606Y137299D01*
X836529Y137379D01*
X836449Y137456D01*
X836367Y137530D01*
X836282Y137601D01*
X836194Y137669D01*
X836104Y137734D01*
X836012Y137795D01*
X835918Y137853D01*
X835822Y137908D01*
X835723Y137960D01*
X835623Y138007D01*
X835522Y138052D01*
X835419Y138092D01*
X835314Y138129D01*
X835208Y138162D01*
X835102Y138192D01*
X834994Y138217D01*
X834885Y138239D01*
X834776Y138256D01*
X834666Y138270D01*
X834555Y138280D01*
X834445Y138286D01*
X834334Y138288D01*
X834334Y138289D02*
X829366Y138289D01*
X829366Y138288D02*
X829255Y138286D01*
X829145Y138280D01*
X829034Y138270D01*
X828924Y138256D01*
X828815Y138239D01*
X828706Y138217D01*
X828598Y138192D01*
X828492Y138162D01*
X828386Y138129D01*
X828281Y138092D01*
X828178Y138052D01*
X828077Y138007D01*
X827977Y137960D01*
X827878Y137908D01*
X827782Y137853D01*
X827688Y137795D01*
X827596Y137734D01*
X827506Y137669D01*
X827418Y137601D01*
X827333Y137530D01*
X827251Y137456D01*
X827171Y137379D01*
X827094Y137299D01*
X827020Y137217D01*
X826949Y137132D01*
X826881Y137044D01*
X826816Y136954D01*
X826755Y136862D01*
X826697Y136768D01*
X826642Y136672D01*
X826590Y136573D01*
X826543Y136473D01*
X826498Y136372D01*
X826458Y136269D01*
X826421Y136164D01*
X826388Y136058D01*
X826358Y135952D01*
X826333Y135844D01*
X826311Y135735D01*
X826294Y135626D01*
X826280Y135516D01*
X826270Y135405D01*
X826264Y135295D01*
X826262Y135184D01*
X826262Y132080D01*
X826262Y144709D02*
X837438Y144709D01*
X826262Y143468D02*
X826262Y145951D01*
X837438Y145951D02*
X837438Y143468D01*
X826262Y154093D02*
X826264Y154191D01*
X826270Y154288D01*
X826279Y154385D01*
X826293Y154482D01*
X826310Y154578D01*
X826331Y154673D01*
X826355Y154767D01*
X826384Y154861D01*
X826416Y154953D01*
X826451Y155044D01*
X826490Y155133D01*
X826533Y155221D01*
X826579Y155307D01*
X826628Y155391D01*
X826681Y155473D01*
X826736Y155553D01*
X826795Y155631D01*
X826857Y155706D01*
X826922Y155779D01*
X826990Y155849D01*
X827060Y155917D01*
X827133Y155982D01*
X827208Y156044D01*
X827286Y156103D01*
X827366Y156158D01*
X827448Y156211D01*
X827532Y156260D01*
X827618Y156306D01*
X827706Y156349D01*
X827795Y156388D01*
X827886Y156423D01*
X827978Y156455D01*
X828072Y156484D01*
X828166Y156508D01*
X828261Y156529D01*
X828357Y156546D01*
X828454Y156560D01*
X828551Y156569D01*
X828648Y156575D01*
X828746Y156577D01*
X826262Y154093D02*
X826264Y153950D01*
X826270Y153807D01*
X826279Y153665D01*
X826293Y153523D01*
X826311Y153381D01*
X826332Y153240D01*
X826357Y153099D01*
X826386Y152959D01*
X826419Y152820D01*
X826455Y152682D01*
X826496Y152545D01*
X826540Y152409D01*
X826587Y152275D01*
X826639Y152141D01*
X826693Y152010D01*
X826752Y151879D01*
X826814Y151751D01*
X826879Y151624D01*
X826948Y151499D01*
X827021Y151375D01*
X827096Y151254D01*
X827175Y151135D01*
X827257Y151018D01*
X827343Y150904D01*
X827431Y150792D01*
X827522Y150682D01*
X827617Y150575D01*
X827714Y150470D01*
X827814Y150368D01*
X834954Y150678D02*
X835052Y150680D01*
X835149Y150686D01*
X835246Y150695D01*
X835343Y150709D01*
X835439Y150726D01*
X835534Y150747D01*
X835628Y150771D01*
X835722Y150800D01*
X835814Y150832D01*
X835905Y150867D01*
X835994Y150906D01*
X836082Y150949D01*
X836168Y150995D01*
X836252Y151044D01*
X836334Y151097D01*
X836414Y151152D01*
X836492Y151211D01*
X836567Y151273D01*
X836640Y151338D01*
X836710Y151406D01*
X836778Y151476D01*
X836843Y151549D01*
X836905Y151624D01*
X836964Y151702D01*
X837019Y151782D01*
X837072Y151864D01*
X837121Y151948D01*
X837167Y152034D01*
X837210Y152122D01*
X837249Y152211D01*
X837284Y152302D01*
X837316Y152394D01*
X837345Y152488D01*
X837369Y152582D01*
X837390Y152677D01*
X837407Y152773D01*
X837421Y152870D01*
X837430Y152967D01*
X837436Y153064D01*
X837438Y153162D01*
X837436Y153292D01*
X837431Y153422D01*
X837422Y153552D01*
X837409Y153682D01*
X837393Y153811D01*
X837373Y153940D01*
X837349Y154068D01*
X837322Y154196D01*
X837291Y154322D01*
X837257Y154448D01*
X837219Y154573D01*
X837178Y154696D01*
X837133Y154819D01*
X837085Y154940D01*
X837034Y155060D01*
X836979Y155178D01*
X836921Y155294D01*
X836860Y155409D01*
X836795Y155523D01*
X836728Y155634D01*
X836657Y155743D01*
X836583Y155851D01*
X836507Y155956D01*
X832781Y151921D02*
X832832Y151838D01*
X832886Y151757D01*
X832943Y151679D01*
X833003Y151603D01*
X833066Y151529D01*
X833132Y151458D01*
X833200Y151389D01*
X833271Y151323D01*
X833344Y151259D01*
X833420Y151199D01*
X833498Y151142D01*
X833579Y151087D01*
X833661Y151036D01*
X833745Y150988D01*
X833831Y150943D01*
X833919Y150901D01*
X834008Y150863D01*
X834098Y150829D01*
X834190Y150797D01*
X834283Y150770D01*
X834377Y150746D01*
X834472Y150725D01*
X834568Y150709D01*
X834664Y150696D01*
X834760Y150686D01*
X834857Y150681D01*
X834954Y150679D01*
X830919Y155334D02*
X830868Y155417D01*
X830814Y155498D01*
X830757Y155576D01*
X830697Y155652D01*
X830634Y155726D01*
X830568Y155797D01*
X830500Y155866D01*
X830429Y155932D01*
X830356Y155996D01*
X830280Y156056D01*
X830202Y156113D01*
X830121Y156168D01*
X830039Y156219D01*
X829955Y156267D01*
X829869Y156312D01*
X829781Y156354D01*
X829692Y156392D01*
X829602Y156426D01*
X829510Y156458D01*
X829417Y156485D01*
X829323Y156509D01*
X829228Y156530D01*
X829132Y156546D01*
X829036Y156559D01*
X828940Y156569D01*
X828843Y156574D01*
X828746Y156576D01*
X830919Y155335D02*
X832781Y151920D01*
X837438Y162010D02*
X826262Y162010D01*
X837438Y162010D02*
X837438Y165114D01*
X837436Y165225D01*
X837430Y165335D01*
X837420Y165446D01*
X837406Y165556D01*
X837389Y165665D01*
X837367Y165774D01*
X837342Y165882D01*
X837312Y165988D01*
X837279Y166094D01*
X837242Y166199D01*
X837202Y166302D01*
X837157Y166403D01*
X837110Y166503D01*
X837058Y166602D01*
X837003Y166698D01*
X836945Y166792D01*
X836884Y166884D01*
X836819Y166974D01*
X836751Y167062D01*
X836680Y167147D01*
X836606Y167229D01*
X836529Y167309D01*
X836449Y167386D01*
X836367Y167460D01*
X836282Y167531D01*
X836194Y167599D01*
X836104Y167664D01*
X836012Y167725D01*
X835918Y167783D01*
X835822Y167838D01*
X835723Y167890D01*
X835623Y167937D01*
X835522Y167982D01*
X835419Y168022D01*
X835314Y168059D01*
X835208Y168092D01*
X835102Y168122D01*
X834994Y168147D01*
X834885Y168169D01*
X834776Y168186D01*
X834666Y168200D01*
X834555Y168210D01*
X834445Y168216D01*
X834334Y168218D01*
X834223Y168216D01*
X834113Y168210D01*
X834002Y168200D01*
X833892Y168186D01*
X833783Y168169D01*
X833674Y168147D01*
X833566Y168122D01*
X833460Y168092D01*
X833354Y168059D01*
X833249Y168022D01*
X833146Y167982D01*
X833045Y167937D01*
X832945Y167890D01*
X832846Y167838D01*
X832750Y167783D01*
X832656Y167725D01*
X832564Y167664D01*
X832474Y167599D01*
X832386Y167531D01*
X832301Y167460D01*
X832219Y167386D01*
X832139Y167309D01*
X832062Y167229D01*
X831988Y167147D01*
X831917Y167062D01*
X831849Y166974D01*
X831784Y166884D01*
X831723Y166792D01*
X831665Y166698D01*
X831610Y166602D01*
X831558Y166503D01*
X831511Y166403D01*
X831466Y166302D01*
X831426Y166199D01*
X831389Y166094D01*
X831356Y165988D01*
X831326Y165882D01*
X831301Y165774D01*
X831279Y165665D01*
X831262Y165556D01*
X831248Y165446D01*
X831238Y165335D01*
X831232Y165225D01*
X831230Y165114D01*
X831229Y165114D02*
X831229Y162010D01*
X826262Y173256D02*
X837438Y173256D01*
X826262Y173256D02*
X826262Y178223D01*
X826262Y182132D02*
X837438Y185857D01*
X826262Y189583D01*
X829056Y188651D02*
X829056Y183063D01*
X837438Y193562D02*
X832160Y197287D01*
X837438Y201013D01*
X832160Y197287D02*
X826262Y197287D01*
D13*
X689300Y38900D02*
X689303Y38658D01*
X689312Y38417D01*
X689326Y38176D01*
X689347Y37935D01*
X689373Y37695D01*
X689405Y37455D01*
X689443Y37216D01*
X689486Y36979D01*
X689536Y36742D01*
X689591Y36507D01*
X689651Y36273D01*
X689718Y36041D01*
X689789Y35810D01*
X689867Y35581D01*
X689950Y35354D01*
X690038Y35129D01*
X690132Y34906D01*
X690231Y34686D01*
X690336Y34468D01*
X690445Y34253D01*
X690560Y34040D01*
X690680Y33830D01*
X690805Y33624D01*
X690935Y33420D01*
X691070Y33219D01*
X691210Y33022D01*
X691354Y32828D01*
X691503Y32638D01*
X691657Y32452D01*
X691815Y32269D01*
X691977Y32090D01*
X692144Y31915D01*
X692315Y31744D01*
X692490Y31577D01*
X692669Y31415D01*
X692852Y31257D01*
X693038Y31103D01*
X693228Y30954D01*
X693422Y30810D01*
X693619Y30670D01*
X693820Y30535D01*
X694024Y30405D01*
X694230Y30280D01*
X694440Y30160D01*
X694653Y30045D01*
X694868Y29936D01*
X695086Y29831D01*
X695306Y29732D01*
X695529Y29638D01*
X695754Y29550D01*
X695981Y29467D01*
X696210Y29389D01*
X696441Y29318D01*
X696673Y29251D01*
X696907Y29191D01*
X697142Y29136D01*
X697379Y29086D01*
X697616Y29043D01*
X697855Y29005D01*
X698095Y28973D01*
X698335Y28947D01*
X698576Y28926D01*
X698817Y28912D01*
X699058Y28903D01*
X699300Y28900D01*
X799300Y28900D01*
X799542Y28903D01*
X799783Y28912D01*
X800024Y28926D01*
X800265Y28947D01*
X800505Y28973D01*
X800745Y29005D01*
X800984Y29043D01*
X801221Y29086D01*
X801458Y29136D01*
X801693Y29191D01*
X801927Y29251D01*
X802159Y29318D01*
X802390Y29389D01*
X802619Y29467D01*
X802846Y29550D01*
X803071Y29638D01*
X803294Y29732D01*
X803514Y29831D01*
X803732Y29936D01*
X803947Y30045D01*
X804160Y30160D01*
X804370Y30280D01*
X804576Y30405D01*
X804780Y30535D01*
X804981Y30670D01*
X805178Y30810D01*
X805372Y30954D01*
X805562Y31103D01*
X805748Y31257D01*
X805931Y31415D01*
X806110Y31577D01*
X806285Y31744D01*
X806456Y31915D01*
X806623Y32090D01*
X806785Y32269D01*
X806943Y32452D01*
X807097Y32638D01*
X807246Y32828D01*
X807390Y33022D01*
X807530Y33219D01*
X807665Y33420D01*
X807795Y33624D01*
X807920Y33830D01*
X808040Y34040D01*
X808155Y34253D01*
X808264Y34468D01*
X808369Y34686D01*
X808468Y34906D01*
X808562Y35129D01*
X808650Y35354D01*
X808733Y35581D01*
X808811Y35810D01*
X808882Y36041D01*
X808949Y36273D01*
X809009Y36507D01*
X809064Y36742D01*
X809114Y36979D01*
X809157Y37216D01*
X809195Y37455D01*
X809227Y37695D01*
X809253Y37935D01*
X809274Y38176D01*
X809288Y38417D01*
X809297Y38658D01*
X809300Y38900D01*
X809300Y138900D02*
X809297Y139142D01*
X809288Y139383D01*
X809274Y139624D01*
X809253Y139865D01*
X809227Y140105D01*
X809195Y140345D01*
X809157Y140584D01*
X809114Y140821D01*
X809064Y141058D01*
X809009Y141293D01*
X808949Y141527D01*
X808882Y141759D01*
X808811Y141990D01*
X808733Y142219D01*
X808650Y142446D01*
X808562Y142671D01*
X808468Y142894D01*
X808369Y143114D01*
X808264Y143332D01*
X808155Y143547D01*
X808040Y143760D01*
X807920Y143970D01*
X807795Y144176D01*
X807665Y144380D01*
X807530Y144581D01*
X807390Y144778D01*
X807246Y144972D01*
X807097Y145162D01*
X806943Y145348D01*
X806785Y145531D01*
X806623Y145710D01*
X806456Y145885D01*
X806285Y146056D01*
X806110Y146223D01*
X805931Y146385D01*
X805748Y146543D01*
X805562Y146697D01*
X805372Y146846D01*
X805178Y146990D01*
X804981Y147130D01*
X804780Y147265D01*
X804576Y147395D01*
X804370Y147520D01*
X804160Y147640D01*
X803947Y147755D01*
X803732Y147864D01*
X803514Y147969D01*
X803294Y148068D01*
X803071Y148162D01*
X802846Y148250D01*
X802619Y148333D01*
X802390Y148411D01*
X802159Y148482D01*
X801927Y148549D01*
X801693Y148609D01*
X801458Y148664D01*
X801221Y148714D01*
X800984Y148757D01*
X800745Y148795D01*
X800505Y148827D01*
X800265Y148853D01*
X800024Y148874D01*
X799783Y148888D01*
X799542Y148897D01*
X799300Y148900D01*
X699300Y148900D01*
X699058Y148897D01*
X698817Y148888D01*
X698576Y148874D01*
X698335Y148853D01*
X698095Y148827D01*
X697855Y148795D01*
X697616Y148757D01*
X697379Y148714D01*
X697142Y148664D01*
X696907Y148609D01*
X696673Y148549D01*
X696441Y148482D01*
X696210Y148411D01*
X695981Y148333D01*
X695754Y148250D01*
X695529Y148162D01*
X695306Y148068D01*
X695086Y147969D01*
X694868Y147864D01*
X694653Y147755D01*
X694440Y147640D01*
X694230Y147520D01*
X694024Y147395D01*
X693820Y147265D01*
X693619Y147130D01*
X693422Y146990D01*
X693228Y146846D01*
X693038Y146697D01*
X692852Y146543D01*
X692669Y146385D01*
X692490Y146223D01*
X692315Y146056D01*
X692144Y145885D01*
X691977Y145710D01*
X691815Y145531D01*
X691657Y145348D01*
X691503Y145162D01*
X691354Y144972D01*
X691210Y144778D01*
X691070Y144581D01*
X690935Y144380D01*
X690805Y144176D01*
X690680Y143970D01*
X690560Y143760D01*
X690445Y143547D01*
X690336Y143332D01*
X690231Y143114D01*
X690132Y142894D01*
X690038Y142671D01*
X689950Y142446D01*
X689867Y142219D01*
X689789Y141990D01*
X689718Y141759D01*
X689651Y141527D01*
X689591Y141293D01*
X689536Y141058D01*
X689486Y140821D01*
X689443Y140584D01*
X689405Y140345D01*
X689373Y140105D01*
X689347Y139865D01*
X689326Y139624D01*
X689312Y139383D01*
X689303Y139142D01*
X689300Y138900D01*
X713945Y88900D02*
X713956Y89768D01*
X713988Y90635D01*
X714041Y91501D01*
X714115Y92365D01*
X714211Y93228D01*
X714328Y94088D01*
X714466Y94944D01*
X714624Y95797D01*
X714804Y96646D01*
X715005Y97491D01*
X715226Y98330D01*
X715467Y99163D01*
X715729Y99990D01*
X716012Y100811D01*
X716314Y101624D01*
X716636Y102430D01*
X716978Y103227D01*
X717339Y104016D01*
X717720Y104796D01*
X718120Y105566D01*
X718538Y106326D01*
X718975Y107076D01*
X719430Y107815D01*
X719903Y108542D01*
X720394Y109258D01*
X720903Y109961D01*
X721428Y110652D01*
X721970Y111329D01*
X722529Y111993D01*
X723104Y112643D01*
X723694Y113279D01*
X724300Y113900D01*
X724921Y114506D01*
X725557Y115096D01*
X726207Y115671D01*
X726871Y116230D01*
X727548Y116772D01*
X728239Y117297D01*
X728942Y117806D01*
X729658Y118297D01*
X730385Y118770D01*
X731124Y119225D01*
X731874Y119662D01*
X732634Y120080D01*
X733404Y120480D01*
X734184Y120861D01*
X734973Y121222D01*
X735770Y121564D01*
X736576Y121886D01*
X737389Y122188D01*
X738210Y122471D01*
X739037Y122733D01*
X739870Y122974D01*
X740709Y123195D01*
X741554Y123396D01*
X742403Y123576D01*
X743256Y123734D01*
X744112Y123872D01*
X744972Y123989D01*
X745835Y124085D01*
X746699Y124159D01*
X747565Y124212D01*
X748432Y124244D01*
X749300Y124255D01*
X750168Y124244D01*
X751035Y124212D01*
X751901Y124159D01*
X752765Y124085D01*
X753628Y123989D01*
X754488Y123872D01*
X755344Y123734D01*
X756197Y123576D01*
X757046Y123396D01*
X757891Y123195D01*
X758730Y122974D01*
X759563Y122733D01*
X760390Y122471D01*
X761211Y122188D01*
X762024Y121886D01*
X762830Y121564D01*
X763627Y121222D01*
X764416Y120861D01*
X765196Y120480D01*
X765966Y120080D01*
X766726Y119662D01*
X767476Y119225D01*
X768215Y118770D01*
X768942Y118297D01*
X769658Y117806D01*
X770361Y117297D01*
X771052Y116772D01*
X771729Y116230D01*
X772393Y115671D01*
X773043Y115096D01*
X773679Y114506D01*
X774300Y113900D01*
X774906Y113279D01*
X775496Y112643D01*
X776071Y111993D01*
X776630Y111329D01*
X777172Y110652D01*
X777697Y109961D01*
X778206Y109258D01*
X778697Y108542D01*
X779170Y107815D01*
X779625Y107076D01*
X780062Y106326D01*
X780480Y105566D01*
X780880Y104796D01*
X781261Y104016D01*
X781622Y103227D01*
X781964Y102430D01*
X782286Y101624D01*
X782588Y100811D01*
X782871Y99990D01*
X783133Y99163D01*
X783374Y98330D01*
X783595Y97491D01*
X783796Y96646D01*
X783976Y95797D01*
X784134Y94944D01*
X784272Y94088D01*
X784389Y93228D01*
X784485Y92365D01*
X784559Y91501D01*
X784612Y90635D01*
X784644Y89768D01*
X784655Y88900D01*
X784644Y88032D01*
X784612Y87165D01*
X784559Y86299D01*
X784485Y85435D01*
X784389Y84572D01*
X784272Y83712D01*
X784134Y82856D01*
X783976Y82003D01*
X783796Y81154D01*
X783595Y80309D01*
X783374Y79470D01*
X783133Y78637D01*
X782871Y77810D01*
X782588Y76989D01*
X782286Y76176D01*
X781964Y75370D01*
X781622Y74573D01*
X781261Y73784D01*
X780880Y73004D01*
X780480Y72234D01*
X780062Y71474D01*
X779625Y70724D01*
X779170Y69985D01*
X778697Y69258D01*
X778206Y68542D01*
X777697Y67839D01*
X777172Y67148D01*
X776630Y66471D01*
X776071Y65807D01*
X775496Y65157D01*
X774906Y64521D01*
X774300Y63900D01*
X773679Y63294D01*
X773043Y62704D01*
X772393Y62129D01*
X771729Y61570D01*
X771052Y61028D01*
X770361Y60503D01*
X769658Y59994D01*
X768942Y59503D01*
X768215Y59030D01*
X767476Y58575D01*
X766726Y58138D01*
X765966Y57720D01*
X765196Y57320D01*
X764416Y56939D01*
X763627Y56578D01*
X762830Y56236D01*
X762024Y55914D01*
X761211Y55612D01*
X760390Y55329D01*
X759563Y55067D01*
X758730Y54826D01*
X757891Y54605D01*
X757046Y54404D01*
X756197Y54224D01*
X755344Y54066D01*
X754488Y53928D01*
X753628Y53811D01*
X752765Y53715D01*
X751901Y53641D01*
X751035Y53588D01*
X750168Y53556D01*
X749300Y53545D01*
X748432Y53556D01*
X747565Y53588D01*
X746699Y53641D01*
X745835Y53715D01*
X744972Y53811D01*
X744112Y53928D01*
X743256Y54066D01*
X742403Y54224D01*
X741554Y54404D01*
X740709Y54605D01*
X739870Y54826D01*
X739037Y55067D01*
X738210Y55329D01*
X737389Y55612D01*
X736576Y55914D01*
X735770Y56236D01*
X734973Y56578D01*
X734184Y56939D01*
X733404Y57320D01*
X732634Y57720D01*
X731874Y58138D01*
X731124Y58575D01*
X730385Y59030D01*
X729658Y59503D01*
X728942Y59994D01*
X728239Y60503D01*
X727548Y61028D01*
X726871Y61570D01*
X726207Y62129D01*
X725557Y62704D01*
X724921Y63294D01*
X724300Y63900D01*
X723694Y64521D01*
X723104Y65157D01*
X722529Y65807D01*
X721970Y66471D01*
X721428Y67148D01*
X720903Y67839D01*
X720394Y68542D01*
X719903Y69258D01*
X719430Y69985D01*
X718975Y70724D01*
X718538Y71474D01*
X718120Y72234D01*
X717720Y73004D01*
X717339Y73784D01*
X716978Y74573D01*
X716636Y75370D01*
X716314Y76176D01*
X716012Y76989D01*
X715729Y77810D01*
X715467Y78637D01*
X715226Y79470D01*
X715005Y80309D01*
X714804Y81154D01*
X714624Y82003D01*
X714466Y82856D01*
X714328Y83712D01*
X714211Y84572D01*
X714115Y85435D01*
X714041Y86299D01*
X713988Y87165D01*
X713956Y88032D01*
X713945Y88900D01*
X729300Y108900D02*
X769300Y108900D01*
X729300Y108900D02*
X729300Y68900D01*
X769300Y68900D01*
X769300Y108900D01*
X809300Y126400D02*
X809300Y138900D01*
X809300Y101400D02*
X809300Y76400D01*
X809300Y51400D02*
X809300Y38900D01*
X689300Y126400D02*
X689300Y138900D01*
X689300Y101400D02*
X689300Y76400D01*
X689300Y51400D02*
X689300Y38900D01*
D15*
X795697Y152908D02*
X795598Y152910D01*
X795498Y152916D01*
X795399Y152925D01*
X795301Y152938D01*
X795203Y152955D01*
X795105Y152976D01*
X795009Y153001D01*
X794914Y153029D01*
X794820Y153061D01*
X794727Y153096D01*
X794635Y153135D01*
X794545Y153178D01*
X794457Y153223D01*
X794370Y153273D01*
X794286Y153325D01*
X794203Y153381D01*
X794123Y153439D01*
X794045Y153501D01*
X793970Y153566D01*
X793897Y153634D01*
X793827Y153704D01*
X793759Y153777D01*
X793694Y153852D01*
X793632Y153930D01*
X793574Y154010D01*
X793518Y154093D01*
X793466Y154177D01*
X793416Y154264D01*
X793371Y154352D01*
X793328Y154442D01*
X793289Y154534D01*
X793254Y154627D01*
X793222Y154721D01*
X793194Y154816D01*
X793169Y154912D01*
X793148Y155010D01*
X793131Y155108D01*
X793118Y155206D01*
X793109Y155305D01*
X793103Y155405D01*
X793101Y155504D01*
X795697Y152908D02*
X795841Y152910D01*
X795986Y152916D01*
X796130Y152925D01*
X796273Y152938D01*
X796417Y152955D01*
X796560Y152976D01*
X796702Y153001D01*
X796843Y153029D01*
X796984Y153061D01*
X797124Y153097D01*
X797263Y153136D01*
X797401Y153179D01*
X797537Y153226D01*
X797673Y153276D01*
X797807Y153330D01*
X797939Y153387D01*
X798070Y153448D01*
X798199Y153512D01*
X798327Y153580D01*
X798453Y153651D01*
X798577Y153725D01*
X798698Y153802D01*
X798818Y153883D01*
X798936Y153966D01*
X799051Y154053D01*
X799164Y154143D01*
X799275Y154236D01*
X799383Y154331D01*
X799489Y154430D01*
X799592Y154531D01*
X799267Y161996D02*
X799265Y162095D01*
X799259Y162195D01*
X799250Y162294D01*
X799237Y162392D01*
X799220Y162490D01*
X799199Y162588D01*
X799174Y162684D01*
X799146Y162779D01*
X799114Y162873D01*
X799079Y162966D01*
X799040Y163058D01*
X798997Y163148D01*
X798952Y163236D01*
X798902Y163323D01*
X798850Y163407D01*
X798794Y163490D01*
X798736Y163570D01*
X798674Y163648D01*
X798609Y163723D01*
X798541Y163796D01*
X798471Y163866D01*
X798398Y163934D01*
X798323Y163999D01*
X798245Y164061D01*
X798165Y164119D01*
X798082Y164175D01*
X797998Y164227D01*
X797911Y164277D01*
X797823Y164322D01*
X797733Y164365D01*
X797641Y164404D01*
X797548Y164439D01*
X797454Y164471D01*
X797359Y164499D01*
X797263Y164524D01*
X797165Y164545D01*
X797067Y164562D01*
X796969Y164575D01*
X796870Y164584D01*
X796770Y164590D01*
X796671Y164592D01*
X796535Y164590D01*
X796399Y164584D01*
X796263Y164575D01*
X796127Y164562D01*
X795992Y164544D01*
X795858Y164524D01*
X795724Y164499D01*
X795590Y164471D01*
X795458Y164438D01*
X795327Y164403D01*
X795196Y164363D01*
X795067Y164320D01*
X794939Y164274D01*
X794813Y164223D01*
X794687Y164170D01*
X794564Y164112D01*
X794442Y164052D01*
X794322Y163988D01*
X794203Y163920D01*
X794087Y163850D01*
X793973Y163776D01*
X793860Y163699D01*
X793750Y163618D01*
X797969Y159724D02*
X798055Y159777D01*
X798139Y159834D01*
X798221Y159893D01*
X798301Y159956D01*
X798378Y160022D01*
X798453Y160090D01*
X798525Y160162D01*
X798594Y160236D01*
X798660Y160313D01*
X798723Y160392D01*
X798783Y160474D01*
X798840Y160558D01*
X798894Y160644D01*
X798944Y160732D01*
X798991Y160822D01*
X799035Y160913D01*
X799074Y161007D01*
X799111Y161101D01*
X799143Y161197D01*
X799172Y161295D01*
X799197Y161393D01*
X799218Y161492D01*
X799236Y161592D01*
X799249Y161692D01*
X799259Y161793D01*
X799265Y161895D01*
X799267Y161996D01*
X794399Y157776D02*
X794313Y157723D01*
X794229Y157666D01*
X794147Y157607D01*
X794067Y157544D01*
X793990Y157478D01*
X793915Y157410D01*
X793843Y157338D01*
X793774Y157264D01*
X793708Y157187D01*
X793645Y157108D01*
X793585Y157026D01*
X793528Y156942D01*
X793474Y156856D01*
X793424Y156768D01*
X793377Y156678D01*
X793333Y156587D01*
X793294Y156493D01*
X793257Y156399D01*
X793225Y156303D01*
X793196Y156205D01*
X793171Y156107D01*
X793150Y156008D01*
X793132Y155908D01*
X793119Y155808D01*
X793109Y155707D01*
X793103Y155605D01*
X793101Y155504D01*
X794399Y157776D02*
X797969Y159724D01*
X788966Y164592D02*
X786370Y152908D01*
X783773Y160697D01*
X781177Y152908D01*
X778581Y164592D01*
X774065Y161996D02*
X770820Y164592D01*
X770820Y152908D01*
X774065Y152908D02*
X767574Y152908D01*
D13*
X191300Y28900D02*
X191058Y28903D01*
X190817Y28912D01*
X190576Y28926D01*
X190335Y28947D01*
X190095Y28973D01*
X189855Y29005D01*
X189616Y29043D01*
X189379Y29086D01*
X189142Y29136D01*
X188907Y29191D01*
X188673Y29251D01*
X188441Y29318D01*
X188210Y29389D01*
X187981Y29467D01*
X187754Y29550D01*
X187529Y29638D01*
X187306Y29732D01*
X187086Y29831D01*
X186868Y29936D01*
X186653Y30045D01*
X186440Y30160D01*
X186230Y30280D01*
X186024Y30405D01*
X185820Y30535D01*
X185619Y30670D01*
X185422Y30810D01*
X185228Y30954D01*
X185038Y31103D01*
X184852Y31257D01*
X184669Y31415D01*
X184490Y31577D01*
X184315Y31744D01*
X184144Y31915D01*
X183977Y32090D01*
X183815Y32269D01*
X183657Y32452D01*
X183503Y32638D01*
X183354Y32828D01*
X183210Y33022D01*
X183070Y33219D01*
X182935Y33420D01*
X182805Y33624D01*
X182680Y33830D01*
X182560Y34040D01*
X182445Y34253D01*
X182336Y34468D01*
X182231Y34686D01*
X182132Y34906D01*
X182038Y35129D01*
X181950Y35354D01*
X181867Y35581D01*
X181789Y35810D01*
X181718Y36041D01*
X181651Y36273D01*
X181591Y36507D01*
X181536Y36742D01*
X181486Y36979D01*
X181443Y37216D01*
X181405Y37455D01*
X181373Y37695D01*
X181347Y37935D01*
X181326Y38176D01*
X181312Y38417D01*
X181303Y38658D01*
X181300Y38900D01*
X191300Y28900D02*
X291300Y28900D01*
X291542Y28903D01*
X291783Y28912D01*
X292024Y28926D01*
X292265Y28947D01*
X292505Y28973D01*
X292745Y29005D01*
X292984Y29043D01*
X293221Y29086D01*
X293458Y29136D01*
X293693Y29191D01*
X293927Y29251D01*
X294159Y29318D01*
X294390Y29389D01*
X294619Y29467D01*
X294846Y29550D01*
X295071Y29638D01*
X295294Y29732D01*
X295514Y29831D01*
X295732Y29936D01*
X295947Y30045D01*
X296160Y30160D01*
X296370Y30280D01*
X296576Y30405D01*
X296780Y30535D01*
X296981Y30670D01*
X297178Y30810D01*
X297372Y30954D01*
X297562Y31103D01*
X297748Y31257D01*
X297931Y31415D01*
X298110Y31577D01*
X298285Y31744D01*
X298456Y31915D01*
X298623Y32090D01*
X298785Y32269D01*
X298943Y32452D01*
X299097Y32638D01*
X299246Y32828D01*
X299390Y33022D01*
X299530Y33219D01*
X299665Y33420D01*
X299795Y33624D01*
X299920Y33830D01*
X300040Y34040D01*
X300155Y34253D01*
X300264Y34468D01*
X300369Y34686D01*
X300468Y34906D01*
X300562Y35129D01*
X300650Y35354D01*
X300733Y35581D01*
X300811Y35810D01*
X300882Y36041D01*
X300949Y36273D01*
X301009Y36507D01*
X301064Y36742D01*
X301114Y36979D01*
X301157Y37216D01*
X301195Y37455D01*
X301227Y37695D01*
X301253Y37935D01*
X301274Y38176D01*
X301288Y38417D01*
X301297Y38658D01*
X301300Y38900D01*
X301300Y138900D02*
X301297Y139142D01*
X301288Y139383D01*
X301274Y139624D01*
X301253Y139865D01*
X301227Y140105D01*
X301195Y140345D01*
X301157Y140584D01*
X301114Y140821D01*
X301064Y141058D01*
X301009Y141293D01*
X300949Y141527D01*
X300882Y141759D01*
X300811Y141990D01*
X300733Y142219D01*
X300650Y142446D01*
X300562Y142671D01*
X300468Y142894D01*
X300369Y143114D01*
X300264Y143332D01*
X300155Y143547D01*
X300040Y143760D01*
X299920Y143970D01*
X299795Y144176D01*
X299665Y144380D01*
X299530Y144581D01*
X299390Y144778D01*
X299246Y144972D01*
X299097Y145162D01*
X298943Y145348D01*
X298785Y145531D01*
X298623Y145710D01*
X298456Y145885D01*
X298285Y146056D01*
X298110Y146223D01*
X297931Y146385D01*
X297748Y146543D01*
X297562Y146697D01*
X297372Y146846D01*
X297178Y146990D01*
X296981Y147130D01*
X296780Y147265D01*
X296576Y147395D01*
X296370Y147520D01*
X296160Y147640D01*
X295947Y147755D01*
X295732Y147864D01*
X295514Y147969D01*
X295294Y148068D01*
X295071Y148162D01*
X294846Y148250D01*
X294619Y148333D01*
X294390Y148411D01*
X294159Y148482D01*
X293927Y148549D01*
X293693Y148609D01*
X293458Y148664D01*
X293221Y148714D01*
X292984Y148757D01*
X292745Y148795D01*
X292505Y148827D01*
X292265Y148853D01*
X292024Y148874D01*
X291783Y148888D01*
X291542Y148897D01*
X291300Y148900D01*
X191300Y148900D01*
X191058Y148897D01*
X190817Y148888D01*
X190576Y148874D01*
X190335Y148853D01*
X190095Y148827D01*
X189855Y148795D01*
X189616Y148757D01*
X189379Y148714D01*
X189142Y148664D01*
X188907Y148609D01*
X188673Y148549D01*
X188441Y148482D01*
X188210Y148411D01*
X187981Y148333D01*
X187754Y148250D01*
X187529Y148162D01*
X187306Y148068D01*
X187086Y147969D01*
X186868Y147864D01*
X186653Y147755D01*
X186440Y147640D01*
X186230Y147520D01*
X186024Y147395D01*
X185820Y147265D01*
X185619Y147130D01*
X185422Y146990D01*
X185228Y146846D01*
X185038Y146697D01*
X184852Y146543D01*
X184669Y146385D01*
X184490Y146223D01*
X184315Y146056D01*
X184144Y145885D01*
X183977Y145710D01*
X183815Y145531D01*
X183657Y145348D01*
X183503Y145162D01*
X183354Y144972D01*
X183210Y144778D01*
X183070Y144581D01*
X182935Y144380D01*
X182805Y144176D01*
X182680Y143970D01*
X182560Y143760D01*
X182445Y143547D01*
X182336Y143332D01*
X182231Y143114D01*
X182132Y142894D01*
X182038Y142671D01*
X181950Y142446D01*
X181867Y142219D01*
X181789Y141990D01*
X181718Y141759D01*
X181651Y141527D01*
X181591Y141293D01*
X181536Y141058D01*
X181486Y140821D01*
X181443Y140584D01*
X181405Y140345D01*
X181373Y140105D01*
X181347Y139865D01*
X181326Y139624D01*
X181312Y139383D01*
X181303Y139142D01*
X181300Y138900D01*
X205945Y88900D02*
X205956Y89768D01*
X205988Y90635D01*
X206041Y91501D01*
X206115Y92365D01*
X206211Y93228D01*
X206328Y94088D01*
X206466Y94944D01*
X206624Y95797D01*
X206804Y96646D01*
X207005Y97491D01*
X207226Y98330D01*
X207467Y99163D01*
X207729Y99990D01*
X208012Y100811D01*
X208314Y101624D01*
X208636Y102430D01*
X208978Y103227D01*
X209339Y104016D01*
X209720Y104796D01*
X210120Y105566D01*
X210538Y106326D01*
X210975Y107076D01*
X211430Y107815D01*
X211903Y108542D01*
X212394Y109258D01*
X212903Y109961D01*
X213428Y110652D01*
X213970Y111329D01*
X214529Y111993D01*
X215104Y112643D01*
X215694Y113279D01*
X216300Y113900D01*
X216921Y114506D01*
X217557Y115096D01*
X218207Y115671D01*
X218871Y116230D01*
X219548Y116772D01*
X220239Y117297D01*
X220942Y117806D01*
X221658Y118297D01*
X222385Y118770D01*
X223124Y119225D01*
X223874Y119662D01*
X224634Y120080D01*
X225404Y120480D01*
X226184Y120861D01*
X226973Y121222D01*
X227770Y121564D01*
X228576Y121886D01*
X229389Y122188D01*
X230210Y122471D01*
X231037Y122733D01*
X231870Y122974D01*
X232709Y123195D01*
X233554Y123396D01*
X234403Y123576D01*
X235256Y123734D01*
X236112Y123872D01*
X236972Y123989D01*
X237835Y124085D01*
X238699Y124159D01*
X239565Y124212D01*
X240432Y124244D01*
X241300Y124255D01*
X242168Y124244D01*
X243035Y124212D01*
X243901Y124159D01*
X244765Y124085D01*
X245628Y123989D01*
X246488Y123872D01*
X247344Y123734D01*
X248197Y123576D01*
X249046Y123396D01*
X249891Y123195D01*
X250730Y122974D01*
X251563Y122733D01*
X252390Y122471D01*
X253211Y122188D01*
X254024Y121886D01*
X254830Y121564D01*
X255627Y121222D01*
X256416Y120861D01*
X257196Y120480D01*
X257966Y120080D01*
X258726Y119662D01*
X259476Y119225D01*
X260215Y118770D01*
X260942Y118297D01*
X261658Y117806D01*
X262361Y117297D01*
X263052Y116772D01*
X263729Y116230D01*
X264393Y115671D01*
X265043Y115096D01*
X265679Y114506D01*
X266300Y113900D01*
X266906Y113279D01*
X267496Y112643D01*
X268071Y111993D01*
X268630Y111329D01*
X269172Y110652D01*
X269697Y109961D01*
X270206Y109258D01*
X270697Y108542D01*
X271170Y107815D01*
X271625Y107076D01*
X272062Y106326D01*
X272480Y105566D01*
X272880Y104796D01*
X273261Y104016D01*
X273622Y103227D01*
X273964Y102430D01*
X274286Y101624D01*
X274588Y100811D01*
X274871Y99990D01*
X275133Y99163D01*
X275374Y98330D01*
X275595Y97491D01*
X275796Y96646D01*
X275976Y95797D01*
X276134Y94944D01*
X276272Y94088D01*
X276389Y93228D01*
X276485Y92365D01*
X276559Y91501D01*
X276612Y90635D01*
X276644Y89768D01*
X276655Y88900D01*
X276644Y88032D01*
X276612Y87165D01*
X276559Y86299D01*
X276485Y85435D01*
X276389Y84572D01*
X276272Y83712D01*
X276134Y82856D01*
X275976Y82003D01*
X275796Y81154D01*
X275595Y80309D01*
X275374Y79470D01*
X275133Y78637D01*
X274871Y77810D01*
X274588Y76989D01*
X274286Y76176D01*
X273964Y75370D01*
X273622Y74573D01*
X273261Y73784D01*
X272880Y73004D01*
X272480Y72234D01*
X272062Y71474D01*
X271625Y70724D01*
X271170Y69985D01*
X270697Y69258D01*
X270206Y68542D01*
X269697Y67839D01*
X269172Y67148D01*
X268630Y66471D01*
X268071Y65807D01*
X267496Y65157D01*
X266906Y64521D01*
X266300Y63900D01*
X265679Y63294D01*
X265043Y62704D01*
X264393Y62129D01*
X263729Y61570D01*
X263052Y61028D01*
X262361Y60503D01*
X261658Y59994D01*
X260942Y59503D01*
X260215Y59030D01*
X259476Y58575D01*
X258726Y58138D01*
X257966Y57720D01*
X257196Y57320D01*
X256416Y56939D01*
X255627Y56578D01*
X254830Y56236D01*
X254024Y55914D01*
X253211Y55612D01*
X252390Y55329D01*
X251563Y55067D01*
X250730Y54826D01*
X249891Y54605D01*
X249046Y54404D01*
X248197Y54224D01*
X247344Y54066D01*
X246488Y53928D01*
X245628Y53811D01*
X244765Y53715D01*
X243901Y53641D01*
X243035Y53588D01*
X242168Y53556D01*
X241300Y53545D01*
X240432Y53556D01*
X239565Y53588D01*
X238699Y53641D01*
X237835Y53715D01*
X236972Y53811D01*
X236112Y53928D01*
X235256Y54066D01*
X234403Y54224D01*
X233554Y54404D01*
X232709Y54605D01*
X231870Y54826D01*
X231037Y55067D01*
X230210Y55329D01*
X229389Y55612D01*
X228576Y55914D01*
X227770Y56236D01*
X226973Y56578D01*
X226184Y56939D01*
X225404Y57320D01*
X224634Y57720D01*
X223874Y58138D01*
X223124Y58575D01*
X222385Y59030D01*
X221658Y59503D01*
X220942Y59994D01*
X220239Y60503D01*
X219548Y61028D01*
X218871Y61570D01*
X218207Y62129D01*
X217557Y62704D01*
X216921Y63294D01*
X216300Y63900D01*
X215694Y64521D01*
X215104Y65157D01*
X214529Y65807D01*
X213970Y66471D01*
X213428Y67148D01*
X212903Y67839D01*
X212394Y68542D01*
X211903Y69258D01*
X211430Y69985D01*
X210975Y70724D01*
X210538Y71474D01*
X210120Y72234D01*
X209720Y73004D01*
X209339Y73784D01*
X208978Y74573D01*
X208636Y75370D01*
X208314Y76176D01*
X208012Y76989D01*
X207729Y77810D01*
X207467Y78637D01*
X207226Y79470D01*
X207005Y80309D01*
X206804Y81154D01*
X206624Y82003D01*
X206466Y82856D01*
X206328Y83712D01*
X206211Y84572D01*
X206115Y85435D01*
X206041Y86299D01*
X205988Y87165D01*
X205956Y88032D01*
X205945Y88900D01*
X221300Y108900D02*
X261300Y108900D01*
X221300Y108900D02*
X221300Y68900D01*
X261300Y68900D01*
X261300Y108900D01*
X301300Y126400D02*
X301300Y138900D01*
X301300Y101400D02*
X301300Y76400D01*
X301300Y51400D02*
X301300Y38900D01*
X181300Y126400D02*
X181300Y138900D01*
X181300Y101400D02*
X181300Y76400D01*
X181300Y51400D02*
X181300Y38900D01*
D15*
X287697Y152908D02*
X287598Y152910D01*
X287498Y152916D01*
X287399Y152925D01*
X287301Y152938D01*
X287203Y152955D01*
X287105Y152976D01*
X287009Y153001D01*
X286914Y153029D01*
X286820Y153061D01*
X286727Y153096D01*
X286635Y153135D01*
X286545Y153178D01*
X286457Y153223D01*
X286370Y153273D01*
X286286Y153325D01*
X286203Y153381D01*
X286123Y153439D01*
X286045Y153501D01*
X285970Y153566D01*
X285897Y153634D01*
X285827Y153704D01*
X285759Y153777D01*
X285694Y153852D01*
X285632Y153930D01*
X285574Y154010D01*
X285518Y154093D01*
X285466Y154177D01*
X285416Y154264D01*
X285371Y154352D01*
X285328Y154442D01*
X285289Y154534D01*
X285254Y154627D01*
X285222Y154721D01*
X285194Y154816D01*
X285169Y154912D01*
X285148Y155010D01*
X285131Y155108D01*
X285118Y155206D01*
X285109Y155305D01*
X285103Y155405D01*
X285101Y155504D01*
X287697Y152908D02*
X287841Y152910D01*
X287986Y152916D01*
X288130Y152925D01*
X288273Y152938D01*
X288417Y152955D01*
X288560Y152976D01*
X288702Y153001D01*
X288843Y153029D01*
X288984Y153061D01*
X289124Y153097D01*
X289263Y153136D01*
X289401Y153179D01*
X289537Y153226D01*
X289673Y153276D01*
X289807Y153330D01*
X289939Y153387D01*
X290070Y153448D01*
X290199Y153512D01*
X290327Y153580D01*
X290453Y153651D01*
X290577Y153725D01*
X290698Y153802D01*
X290818Y153883D01*
X290936Y153966D01*
X291051Y154053D01*
X291164Y154143D01*
X291275Y154236D01*
X291383Y154331D01*
X291489Y154430D01*
X291592Y154531D01*
X291267Y161996D02*
X291265Y162095D01*
X291259Y162195D01*
X291250Y162294D01*
X291237Y162392D01*
X291220Y162490D01*
X291199Y162588D01*
X291174Y162684D01*
X291146Y162779D01*
X291114Y162873D01*
X291079Y162966D01*
X291040Y163058D01*
X290997Y163148D01*
X290952Y163236D01*
X290902Y163323D01*
X290850Y163407D01*
X290794Y163490D01*
X290736Y163570D01*
X290674Y163648D01*
X290609Y163723D01*
X290541Y163796D01*
X290471Y163866D01*
X290398Y163934D01*
X290323Y163999D01*
X290245Y164061D01*
X290165Y164119D01*
X290082Y164175D01*
X289998Y164227D01*
X289911Y164277D01*
X289823Y164322D01*
X289733Y164365D01*
X289641Y164404D01*
X289548Y164439D01*
X289454Y164471D01*
X289359Y164499D01*
X289263Y164524D01*
X289165Y164545D01*
X289067Y164562D01*
X288969Y164575D01*
X288870Y164584D01*
X288770Y164590D01*
X288671Y164592D01*
X288535Y164590D01*
X288399Y164584D01*
X288263Y164575D01*
X288127Y164562D01*
X287992Y164544D01*
X287858Y164524D01*
X287724Y164499D01*
X287590Y164471D01*
X287458Y164438D01*
X287327Y164403D01*
X287196Y164363D01*
X287067Y164320D01*
X286939Y164274D01*
X286813Y164223D01*
X286687Y164170D01*
X286564Y164112D01*
X286442Y164052D01*
X286322Y163988D01*
X286203Y163920D01*
X286087Y163850D01*
X285973Y163776D01*
X285860Y163699D01*
X285750Y163618D01*
X289969Y159724D02*
X290055Y159777D01*
X290139Y159834D01*
X290221Y159893D01*
X290301Y159956D01*
X290378Y160022D01*
X290453Y160090D01*
X290525Y160162D01*
X290594Y160236D01*
X290660Y160313D01*
X290723Y160392D01*
X290783Y160474D01*
X290840Y160558D01*
X290894Y160644D01*
X290944Y160732D01*
X290991Y160822D01*
X291035Y160913D01*
X291074Y161007D01*
X291111Y161101D01*
X291143Y161197D01*
X291172Y161295D01*
X291197Y161393D01*
X291218Y161492D01*
X291236Y161592D01*
X291249Y161692D01*
X291259Y161793D01*
X291265Y161895D01*
X291267Y161996D01*
X286399Y157776D02*
X286313Y157723D01*
X286229Y157666D01*
X286147Y157607D01*
X286067Y157544D01*
X285990Y157478D01*
X285915Y157410D01*
X285843Y157338D01*
X285774Y157264D01*
X285708Y157187D01*
X285645Y157108D01*
X285585Y157026D01*
X285528Y156942D01*
X285474Y156856D01*
X285424Y156768D01*
X285377Y156678D01*
X285333Y156587D01*
X285294Y156493D01*
X285257Y156399D01*
X285225Y156303D01*
X285196Y156205D01*
X285171Y156107D01*
X285150Y156008D01*
X285132Y155908D01*
X285119Y155808D01*
X285109Y155707D01*
X285103Y155605D01*
X285101Y155504D01*
X286399Y157776D02*
X289969Y159724D01*
X280966Y164592D02*
X278370Y152908D01*
X275773Y160697D01*
X273177Y152908D01*
X270581Y164592D01*
X262495Y164592D02*
X262388Y164590D01*
X262282Y164584D01*
X262176Y164574D01*
X262070Y164561D01*
X261964Y164543D01*
X261860Y164522D01*
X261756Y164497D01*
X261653Y164468D01*
X261552Y164436D01*
X261452Y164399D01*
X261353Y164359D01*
X261255Y164316D01*
X261159Y164269D01*
X261065Y164218D01*
X260973Y164164D01*
X260883Y164107D01*
X260795Y164047D01*
X260710Y163983D01*
X260627Y163916D01*
X260546Y163846D01*
X260468Y163774D01*
X260392Y163698D01*
X260320Y163620D01*
X260250Y163539D01*
X260183Y163456D01*
X260119Y163371D01*
X260059Y163283D01*
X260002Y163193D01*
X259948Y163101D01*
X259897Y163007D01*
X259850Y162911D01*
X259807Y162813D01*
X259767Y162714D01*
X259730Y162614D01*
X259698Y162513D01*
X259669Y162410D01*
X259644Y162306D01*
X259623Y162202D01*
X259605Y162096D01*
X259592Y161990D01*
X259582Y161884D01*
X259576Y161778D01*
X259574Y161671D01*
X262495Y164592D02*
X262616Y164590D01*
X262737Y164584D01*
X262857Y164574D01*
X262978Y164561D01*
X263097Y164543D01*
X263217Y164522D01*
X263335Y164497D01*
X263452Y164468D01*
X263569Y164435D01*
X263684Y164399D01*
X263798Y164358D01*
X263911Y164315D01*
X264023Y164267D01*
X264132Y164216D01*
X264240Y164161D01*
X264347Y164103D01*
X264451Y164042D01*
X264553Y163977D01*
X264653Y163909D01*
X264751Y163838D01*
X264847Y163764D01*
X264940Y163687D01*
X265030Y163606D01*
X265118Y163523D01*
X265203Y163437D01*
X265286Y163348D01*
X265365Y163257D01*
X265442Y163163D01*
X265515Y163067D01*
X265585Y162969D01*
X265652Y162868D01*
X265716Y162765D01*
X265777Y162660D01*
X265834Y162553D01*
X265887Y162445D01*
X265937Y162335D01*
X265983Y162223D01*
X266026Y162110D01*
X266065Y161995D01*
X260548Y159399D02*
X260469Y159477D01*
X260393Y159557D01*
X260320Y159640D01*
X260250Y159726D01*
X260183Y159813D01*
X260119Y159904D01*
X260059Y159996D01*
X260001Y160090D01*
X259947Y160187D01*
X259897Y160285D01*
X259850Y160385D01*
X259806Y160486D01*
X259766Y160589D01*
X259730Y160694D01*
X259698Y160799D01*
X259669Y160906D01*
X259644Y161013D01*
X259622Y161122D01*
X259605Y161231D01*
X259591Y161340D01*
X259582Y161450D01*
X259576Y161561D01*
X259574Y161671D01*
X260548Y159399D02*
X266065Y152908D01*
X259574Y152908D01*
M02*
