G04 EAGLE Gerber RS-274X export*
G75*
%MOMM*%
%FSLAX34Y34*%
%LPD*%
%INSoldermask Top*%
%IPPOS*%
%AMOC8*
5,1,8,0,0,1.08239X$1,22.5*%
G01*
%ADD10R,0.952400X0.952400*%
%ADD11C,0.609600*%
%ADD12C,1.168400*%
%ADD13C,4.597400*%
%ADD14C,1.552400*%
%ADD15C,2.652400*%
%ADD16R,1.102359X1.183641*%
%ADD17R,1.828800X1.828800*%
%ADD18C,1.828800*%
%ADD19C,4.168400*%
%ADD20C,2.112400*%
%ADD21R,1.676400X1.676400*%
%ADD22P,1.814519X8X292.500000*%
%ADD23R,1.440400X1.440400*%
%ADD24C,1.440400*%
%ADD25C,3.372400*%


D10*
X932300Y495300D03*
X947300Y495300D03*
X932300Y444500D03*
X947300Y444500D03*
X932300Y546100D03*
X947300Y546100D03*
D11*
X30480Y635000D02*
X30482Y635187D01*
X30489Y635374D01*
X30501Y635561D01*
X30517Y635747D01*
X30537Y635933D01*
X30562Y636118D01*
X30592Y636303D01*
X30626Y636487D01*
X30665Y636670D01*
X30708Y636852D01*
X30756Y637032D01*
X30808Y637212D01*
X30865Y637390D01*
X30925Y637567D01*
X30991Y637742D01*
X31060Y637916D01*
X31134Y638088D01*
X31212Y638258D01*
X31294Y638426D01*
X31380Y638592D01*
X31470Y638756D01*
X31564Y638917D01*
X31662Y639077D01*
X31764Y639233D01*
X31870Y639388D01*
X31980Y639539D01*
X32093Y639688D01*
X32210Y639834D01*
X32330Y639977D01*
X32454Y640117D01*
X32581Y640254D01*
X32712Y640388D01*
X32846Y640519D01*
X32983Y640646D01*
X33123Y640770D01*
X33266Y640890D01*
X33412Y641007D01*
X33561Y641120D01*
X33712Y641230D01*
X33867Y641336D01*
X34023Y641438D01*
X34183Y641536D01*
X34344Y641630D01*
X34508Y641720D01*
X34674Y641806D01*
X34842Y641888D01*
X35012Y641966D01*
X35184Y642040D01*
X35358Y642109D01*
X35533Y642175D01*
X35710Y642235D01*
X35888Y642292D01*
X36068Y642344D01*
X36248Y642392D01*
X36430Y642435D01*
X36613Y642474D01*
X36797Y642508D01*
X36982Y642538D01*
X37167Y642563D01*
X37353Y642583D01*
X37539Y642599D01*
X37726Y642611D01*
X37913Y642618D01*
X38100Y642620D01*
X38287Y642618D01*
X38474Y642611D01*
X38661Y642599D01*
X38847Y642583D01*
X39033Y642563D01*
X39218Y642538D01*
X39403Y642508D01*
X39587Y642474D01*
X39770Y642435D01*
X39952Y642392D01*
X40132Y642344D01*
X40312Y642292D01*
X40490Y642235D01*
X40667Y642175D01*
X40842Y642109D01*
X41016Y642040D01*
X41188Y641966D01*
X41358Y641888D01*
X41526Y641806D01*
X41692Y641720D01*
X41856Y641630D01*
X42017Y641536D01*
X42177Y641438D01*
X42333Y641336D01*
X42488Y641230D01*
X42639Y641120D01*
X42788Y641007D01*
X42934Y640890D01*
X43077Y640770D01*
X43217Y640646D01*
X43354Y640519D01*
X43488Y640388D01*
X43619Y640254D01*
X43746Y640117D01*
X43870Y639977D01*
X43990Y639834D01*
X44107Y639688D01*
X44220Y639539D01*
X44330Y639388D01*
X44436Y639233D01*
X44538Y639077D01*
X44636Y638917D01*
X44730Y638756D01*
X44820Y638592D01*
X44906Y638426D01*
X44988Y638258D01*
X45066Y638088D01*
X45140Y637916D01*
X45209Y637742D01*
X45275Y637567D01*
X45335Y637390D01*
X45392Y637212D01*
X45444Y637032D01*
X45492Y636852D01*
X45535Y636670D01*
X45574Y636487D01*
X45608Y636303D01*
X45638Y636118D01*
X45663Y635933D01*
X45683Y635747D01*
X45699Y635561D01*
X45711Y635374D01*
X45718Y635187D01*
X45720Y635000D01*
X45718Y634813D01*
X45711Y634626D01*
X45699Y634439D01*
X45683Y634253D01*
X45663Y634067D01*
X45638Y633882D01*
X45608Y633697D01*
X45574Y633513D01*
X45535Y633330D01*
X45492Y633148D01*
X45444Y632968D01*
X45392Y632788D01*
X45335Y632610D01*
X45275Y632433D01*
X45209Y632258D01*
X45140Y632084D01*
X45066Y631912D01*
X44988Y631742D01*
X44906Y631574D01*
X44820Y631408D01*
X44730Y631244D01*
X44636Y631083D01*
X44538Y630923D01*
X44436Y630767D01*
X44330Y630612D01*
X44220Y630461D01*
X44107Y630312D01*
X43990Y630166D01*
X43870Y630023D01*
X43746Y629883D01*
X43619Y629746D01*
X43488Y629612D01*
X43354Y629481D01*
X43217Y629354D01*
X43077Y629230D01*
X42934Y629110D01*
X42788Y628993D01*
X42639Y628880D01*
X42488Y628770D01*
X42333Y628664D01*
X42177Y628562D01*
X42017Y628464D01*
X41856Y628370D01*
X41692Y628280D01*
X41526Y628194D01*
X41358Y628112D01*
X41188Y628034D01*
X41016Y627960D01*
X40842Y627891D01*
X40667Y627825D01*
X40490Y627765D01*
X40312Y627708D01*
X40132Y627656D01*
X39952Y627608D01*
X39770Y627565D01*
X39587Y627526D01*
X39403Y627492D01*
X39218Y627462D01*
X39033Y627437D01*
X38847Y627417D01*
X38661Y627401D01*
X38474Y627389D01*
X38287Y627382D01*
X38100Y627380D01*
X37913Y627382D01*
X37726Y627389D01*
X37539Y627401D01*
X37353Y627417D01*
X37167Y627437D01*
X36982Y627462D01*
X36797Y627492D01*
X36613Y627526D01*
X36430Y627565D01*
X36248Y627608D01*
X36068Y627656D01*
X35888Y627708D01*
X35710Y627765D01*
X35533Y627825D01*
X35358Y627891D01*
X35184Y627960D01*
X35012Y628034D01*
X34842Y628112D01*
X34674Y628194D01*
X34508Y628280D01*
X34344Y628370D01*
X34183Y628464D01*
X34023Y628562D01*
X33867Y628664D01*
X33712Y628770D01*
X33561Y628880D01*
X33412Y628993D01*
X33266Y629110D01*
X33123Y629230D01*
X32983Y629354D01*
X32846Y629481D01*
X32712Y629612D01*
X32581Y629746D01*
X32454Y629883D01*
X32330Y630023D01*
X32210Y630166D01*
X32093Y630312D01*
X31980Y630461D01*
X31870Y630612D01*
X31764Y630767D01*
X31662Y630923D01*
X31564Y631083D01*
X31470Y631244D01*
X31380Y631408D01*
X31294Y631574D01*
X31212Y631742D01*
X31134Y631912D01*
X31060Y632084D01*
X30991Y632258D01*
X30925Y632433D01*
X30865Y632610D01*
X30808Y632788D01*
X30756Y632968D01*
X30708Y633148D01*
X30665Y633330D01*
X30626Y633513D01*
X30592Y633697D01*
X30562Y633882D01*
X30537Y634067D01*
X30517Y634253D01*
X30501Y634439D01*
X30489Y634626D01*
X30482Y634813D01*
X30480Y635000D01*
D12*
X38100Y635000D03*
D11*
X30480Y114300D02*
X30482Y114487D01*
X30489Y114674D01*
X30501Y114861D01*
X30517Y115047D01*
X30537Y115233D01*
X30562Y115418D01*
X30592Y115603D01*
X30626Y115787D01*
X30665Y115970D01*
X30708Y116152D01*
X30756Y116332D01*
X30808Y116512D01*
X30865Y116690D01*
X30925Y116867D01*
X30991Y117042D01*
X31060Y117216D01*
X31134Y117388D01*
X31212Y117558D01*
X31294Y117726D01*
X31380Y117892D01*
X31470Y118056D01*
X31564Y118217D01*
X31662Y118377D01*
X31764Y118533D01*
X31870Y118688D01*
X31980Y118839D01*
X32093Y118988D01*
X32210Y119134D01*
X32330Y119277D01*
X32454Y119417D01*
X32581Y119554D01*
X32712Y119688D01*
X32846Y119819D01*
X32983Y119946D01*
X33123Y120070D01*
X33266Y120190D01*
X33412Y120307D01*
X33561Y120420D01*
X33712Y120530D01*
X33867Y120636D01*
X34023Y120738D01*
X34183Y120836D01*
X34344Y120930D01*
X34508Y121020D01*
X34674Y121106D01*
X34842Y121188D01*
X35012Y121266D01*
X35184Y121340D01*
X35358Y121409D01*
X35533Y121475D01*
X35710Y121535D01*
X35888Y121592D01*
X36068Y121644D01*
X36248Y121692D01*
X36430Y121735D01*
X36613Y121774D01*
X36797Y121808D01*
X36982Y121838D01*
X37167Y121863D01*
X37353Y121883D01*
X37539Y121899D01*
X37726Y121911D01*
X37913Y121918D01*
X38100Y121920D01*
X38287Y121918D01*
X38474Y121911D01*
X38661Y121899D01*
X38847Y121883D01*
X39033Y121863D01*
X39218Y121838D01*
X39403Y121808D01*
X39587Y121774D01*
X39770Y121735D01*
X39952Y121692D01*
X40132Y121644D01*
X40312Y121592D01*
X40490Y121535D01*
X40667Y121475D01*
X40842Y121409D01*
X41016Y121340D01*
X41188Y121266D01*
X41358Y121188D01*
X41526Y121106D01*
X41692Y121020D01*
X41856Y120930D01*
X42017Y120836D01*
X42177Y120738D01*
X42333Y120636D01*
X42488Y120530D01*
X42639Y120420D01*
X42788Y120307D01*
X42934Y120190D01*
X43077Y120070D01*
X43217Y119946D01*
X43354Y119819D01*
X43488Y119688D01*
X43619Y119554D01*
X43746Y119417D01*
X43870Y119277D01*
X43990Y119134D01*
X44107Y118988D01*
X44220Y118839D01*
X44330Y118688D01*
X44436Y118533D01*
X44538Y118377D01*
X44636Y118217D01*
X44730Y118056D01*
X44820Y117892D01*
X44906Y117726D01*
X44988Y117558D01*
X45066Y117388D01*
X45140Y117216D01*
X45209Y117042D01*
X45275Y116867D01*
X45335Y116690D01*
X45392Y116512D01*
X45444Y116332D01*
X45492Y116152D01*
X45535Y115970D01*
X45574Y115787D01*
X45608Y115603D01*
X45638Y115418D01*
X45663Y115233D01*
X45683Y115047D01*
X45699Y114861D01*
X45711Y114674D01*
X45718Y114487D01*
X45720Y114300D01*
X45718Y114113D01*
X45711Y113926D01*
X45699Y113739D01*
X45683Y113553D01*
X45663Y113367D01*
X45638Y113182D01*
X45608Y112997D01*
X45574Y112813D01*
X45535Y112630D01*
X45492Y112448D01*
X45444Y112268D01*
X45392Y112088D01*
X45335Y111910D01*
X45275Y111733D01*
X45209Y111558D01*
X45140Y111384D01*
X45066Y111212D01*
X44988Y111042D01*
X44906Y110874D01*
X44820Y110708D01*
X44730Y110544D01*
X44636Y110383D01*
X44538Y110223D01*
X44436Y110067D01*
X44330Y109912D01*
X44220Y109761D01*
X44107Y109612D01*
X43990Y109466D01*
X43870Y109323D01*
X43746Y109183D01*
X43619Y109046D01*
X43488Y108912D01*
X43354Y108781D01*
X43217Y108654D01*
X43077Y108530D01*
X42934Y108410D01*
X42788Y108293D01*
X42639Y108180D01*
X42488Y108070D01*
X42333Y107964D01*
X42177Y107862D01*
X42017Y107764D01*
X41856Y107670D01*
X41692Y107580D01*
X41526Y107494D01*
X41358Y107412D01*
X41188Y107334D01*
X41016Y107260D01*
X40842Y107191D01*
X40667Y107125D01*
X40490Y107065D01*
X40312Y107008D01*
X40132Y106956D01*
X39952Y106908D01*
X39770Y106865D01*
X39587Y106826D01*
X39403Y106792D01*
X39218Y106762D01*
X39033Y106737D01*
X38847Y106717D01*
X38661Y106701D01*
X38474Y106689D01*
X38287Y106682D01*
X38100Y106680D01*
X37913Y106682D01*
X37726Y106689D01*
X37539Y106701D01*
X37353Y106717D01*
X37167Y106737D01*
X36982Y106762D01*
X36797Y106792D01*
X36613Y106826D01*
X36430Y106865D01*
X36248Y106908D01*
X36068Y106956D01*
X35888Y107008D01*
X35710Y107065D01*
X35533Y107125D01*
X35358Y107191D01*
X35184Y107260D01*
X35012Y107334D01*
X34842Y107412D01*
X34674Y107494D01*
X34508Y107580D01*
X34344Y107670D01*
X34183Y107764D01*
X34023Y107862D01*
X33867Y107964D01*
X33712Y108070D01*
X33561Y108180D01*
X33412Y108293D01*
X33266Y108410D01*
X33123Y108530D01*
X32983Y108654D01*
X32846Y108781D01*
X32712Y108912D01*
X32581Y109046D01*
X32454Y109183D01*
X32330Y109323D01*
X32210Y109466D01*
X32093Y109612D01*
X31980Y109761D01*
X31870Y109912D01*
X31764Y110067D01*
X31662Y110223D01*
X31564Y110383D01*
X31470Y110544D01*
X31380Y110708D01*
X31294Y110874D01*
X31212Y111042D01*
X31134Y111212D01*
X31060Y111384D01*
X30991Y111558D01*
X30925Y111733D01*
X30865Y111910D01*
X30808Y112088D01*
X30756Y112268D01*
X30708Y112448D01*
X30665Y112630D01*
X30626Y112813D01*
X30592Y112997D01*
X30562Y113182D01*
X30537Y113367D01*
X30517Y113553D01*
X30501Y113739D01*
X30489Y113926D01*
X30482Y114113D01*
X30480Y114300D01*
D12*
X38100Y114300D03*
D11*
X932180Y114300D02*
X932182Y114487D01*
X932189Y114674D01*
X932201Y114861D01*
X932217Y115047D01*
X932237Y115233D01*
X932262Y115418D01*
X932292Y115603D01*
X932326Y115787D01*
X932365Y115970D01*
X932408Y116152D01*
X932456Y116332D01*
X932508Y116512D01*
X932565Y116690D01*
X932625Y116867D01*
X932691Y117042D01*
X932760Y117216D01*
X932834Y117388D01*
X932912Y117558D01*
X932994Y117726D01*
X933080Y117892D01*
X933170Y118056D01*
X933264Y118217D01*
X933362Y118377D01*
X933464Y118533D01*
X933570Y118688D01*
X933680Y118839D01*
X933793Y118988D01*
X933910Y119134D01*
X934030Y119277D01*
X934154Y119417D01*
X934281Y119554D01*
X934412Y119688D01*
X934546Y119819D01*
X934683Y119946D01*
X934823Y120070D01*
X934966Y120190D01*
X935112Y120307D01*
X935261Y120420D01*
X935412Y120530D01*
X935567Y120636D01*
X935723Y120738D01*
X935883Y120836D01*
X936044Y120930D01*
X936208Y121020D01*
X936374Y121106D01*
X936542Y121188D01*
X936712Y121266D01*
X936884Y121340D01*
X937058Y121409D01*
X937233Y121475D01*
X937410Y121535D01*
X937588Y121592D01*
X937768Y121644D01*
X937948Y121692D01*
X938130Y121735D01*
X938313Y121774D01*
X938497Y121808D01*
X938682Y121838D01*
X938867Y121863D01*
X939053Y121883D01*
X939239Y121899D01*
X939426Y121911D01*
X939613Y121918D01*
X939800Y121920D01*
X939987Y121918D01*
X940174Y121911D01*
X940361Y121899D01*
X940547Y121883D01*
X940733Y121863D01*
X940918Y121838D01*
X941103Y121808D01*
X941287Y121774D01*
X941470Y121735D01*
X941652Y121692D01*
X941832Y121644D01*
X942012Y121592D01*
X942190Y121535D01*
X942367Y121475D01*
X942542Y121409D01*
X942716Y121340D01*
X942888Y121266D01*
X943058Y121188D01*
X943226Y121106D01*
X943392Y121020D01*
X943556Y120930D01*
X943717Y120836D01*
X943877Y120738D01*
X944033Y120636D01*
X944188Y120530D01*
X944339Y120420D01*
X944488Y120307D01*
X944634Y120190D01*
X944777Y120070D01*
X944917Y119946D01*
X945054Y119819D01*
X945188Y119688D01*
X945319Y119554D01*
X945446Y119417D01*
X945570Y119277D01*
X945690Y119134D01*
X945807Y118988D01*
X945920Y118839D01*
X946030Y118688D01*
X946136Y118533D01*
X946238Y118377D01*
X946336Y118217D01*
X946430Y118056D01*
X946520Y117892D01*
X946606Y117726D01*
X946688Y117558D01*
X946766Y117388D01*
X946840Y117216D01*
X946909Y117042D01*
X946975Y116867D01*
X947035Y116690D01*
X947092Y116512D01*
X947144Y116332D01*
X947192Y116152D01*
X947235Y115970D01*
X947274Y115787D01*
X947308Y115603D01*
X947338Y115418D01*
X947363Y115233D01*
X947383Y115047D01*
X947399Y114861D01*
X947411Y114674D01*
X947418Y114487D01*
X947420Y114300D01*
X947418Y114113D01*
X947411Y113926D01*
X947399Y113739D01*
X947383Y113553D01*
X947363Y113367D01*
X947338Y113182D01*
X947308Y112997D01*
X947274Y112813D01*
X947235Y112630D01*
X947192Y112448D01*
X947144Y112268D01*
X947092Y112088D01*
X947035Y111910D01*
X946975Y111733D01*
X946909Y111558D01*
X946840Y111384D01*
X946766Y111212D01*
X946688Y111042D01*
X946606Y110874D01*
X946520Y110708D01*
X946430Y110544D01*
X946336Y110383D01*
X946238Y110223D01*
X946136Y110067D01*
X946030Y109912D01*
X945920Y109761D01*
X945807Y109612D01*
X945690Y109466D01*
X945570Y109323D01*
X945446Y109183D01*
X945319Y109046D01*
X945188Y108912D01*
X945054Y108781D01*
X944917Y108654D01*
X944777Y108530D01*
X944634Y108410D01*
X944488Y108293D01*
X944339Y108180D01*
X944188Y108070D01*
X944033Y107964D01*
X943877Y107862D01*
X943717Y107764D01*
X943556Y107670D01*
X943392Y107580D01*
X943226Y107494D01*
X943058Y107412D01*
X942888Y107334D01*
X942716Y107260D01*
X942542Y107191D01*
X942367Y107125D01*
X942190Y107065D01*
X942012Y107008D01*
X941832Y106956D01*
X941652Y106908D01*
X941470Y106865D01*
X941287Y106826D01*
X941103Y106792D01*
X940918Y106762D01*
X940733Y106737D01*
X940547Y106717D01*
X940361Y106701D01*
X940174Y106689D01*
X939987Y106682D01*
X939800Y106680D01*
X939613Y106682D01*
X939426Y106689D01*
X939239Y106701D01*
X939053Y106717D01*
X938867Y106737D01*
X938682Y106762D01*
X938497Y106792D01*
X938313Y106826D01*
X938130Y106865D01*
X937948Y106908D01*
X937768Y106956D01*
X937588Y107008D01*
X937410Y107065D01*
X937233Y107125D01*
X937058Y107191D01*
X936884Y107260D01*
X936712Y107334D01*
X936542Y107412D01*
X936374Y107494D01*
X936208Y107580D01*
X936044Y107670D01*
X935883Y107764D01*
X935723Y107862D01*
X935567Y107964D01*
X935412Y108070D01*
X935261Y108180D01*
X935112Y108293D01*
X934966Y108410D01*
X934823Y108530D01*
X934683Y108654D01*
X934546Y108781D01*
X934412Y108912D01*
X934281Y109046D01*
X934154Y109183D01*
X934030Y109323D01*
X933910Y109466D01*
X933793Y109612D01*
X933680Y109761D01*
X933570Y109912D01*
X933464Y110067D01*
X933362Y110223D01*
X933264Y110383D01*
X933170Y110544D01*
X933080Y110708D01*
X932994Y110874D01*
X932912Y111042D01*
X932834Y111212D01*
X932760Y111384D01*
X932691Y111558D01*
X932625Y111733D01*
X932565Y111910D01*
X932508Y112088D01*
X932456Y112268D01*
X932408Y112448D01*
X932365Y112630D01*
X932326Y112813D01*
X932292Y112997D01*
X932262Y113182D01*
X932237Y113367D01*
X932217Y113553D01*
X932201Y113739D01*
X932189Y113926D01*
X932182Y114113D01*
X932180Y114300D01*
D12*
X939800Y114300D03*
D13*
X939800Y711200D03*
X38100Y711200D03*
X38100Y38100D03*
X939800Y38100D03*
D14*
X418700Y25400D03*
X393700Y25400D03*
X368700Y25400D03*
D15*
X443700Y95400D03*
X343700Y95400D03*
D14*
X621900Y25400D03*
X596900Y25400D03*
X571900Y25400D03*
D15*
X646900Y95400D03*
X546900Y95400D03*
D16*
X766699Y203200D03*
X782701Y203200D03*
X512699Y63500D03*
X528701Y63500D03*
X499999Y139700D03*
X516001Y139700D03*
D17*
X114300Y177800D03*
D18*
X114300Y203200D03*
X114300Y228600D03*
X114300Y254000D03*
X114300Y279400D03*
X114300Y304800D03*
X114300Y330200D03*
X114300Y355600D03*
X114300Y381000D03*
X114300Y406400D03*
X114300Y431800D03*
X114300Y457200D03*
X114300Y482600D03*
X114300Y508000D03*
X114300Y533400D03*
X114300Y558800D03*
X114300Y584200D03*
X114300Y609600D03*
X114300Y635000D03*
X114300Y660400D03*
D19*
X114300Y133350D03*
X114300Y704850D03*
X876300Y133350D03*
X876300Y704850D03*
D20*
X686800Y113900D03*
X686800Y63900D03*
X811800Y63900D03*
X811800Y113900D03*
X178800Y113900D03*
X178800Y63900D03*
X303800Y63900D03*
X303800Y113900D03*
D21*
X352800Y664800D03*
D22*
X378200Y664800D03*
X352800Y639400D03*
X378200Y639400D03*
X352800Y614000D03*
X378200Y614000D03*
X352800Y588600D03*
X378200Y588600D03*
X352800Y563200D03*
X378200Y563200D03*
X352800Y537800D03*
X378200Y537800D03*
X352800Y512400D03*
X378200Y512400D03*
X352800Y487000D03*
X378200Y487000D03*
X352800Y461600D03*
X378200Y461600D03*
X352800Y436200D03*
X378200Y436200D03*
X352800Y410800D03*
X378200Y410800D03*
X352800Y385400D03*
X378200Y385400D03*
X352800Y360000D03*
X378200Y360000D03*
X352800Y334600D03*
X378200Y334600D03*
X352800Y309200D03*
X378200Y309200D03*
X352800Y283800D03*
X378200Y283800D03*
X352800Y258400D03*
X378200Y258400D03*
X352800Y233000D03*
X378200Y233000D03*
D21*
X606800Y664800D03*
D22*
X632200Y664800D03*
X606800Y639400D03*
X632200Y639400D03*
X606800Y614000D03*
X632200Y614000D03*
X606800Y588600D03*
X632200Y588600D03*
X606800Y563200D03*
X632200Y563200D03*
X606800Y537800D03*
X632200Y537800D03*
X606800Y512400D03*
X632200Y512400D03*
X606800Y487000D03*
X632200Y487000D03*
X606800Y461600D03*
X632200Y461600D03*
X606800Y436200D03*
X632200Y436200D03*
X606800Y410800D03*
X632200Y410800D03*
X606800Y385400D03*
X632200Y385400D03*
X606800Y360000D03*
X632200Y360000D03*
X606800Y334600D03*
X632200Y334600D03*
X606800Y309200D03*
X632200Y309200D03*
X606800Y283800D03*
X632200Y283800D03*
X606800Y258400D03*
X632200Y258400D03*
X606800Y233000D03*
X632200Y233000D03*
D23*
X838200Y254000D03*
D24*
X838200Y279000D03*
X838200Y299000D03*
X838200Y324000D03*
D25*
X865300Y223300D03*
X865300Y354700D03*
M02*
